<?xml version="1.0" encoding="UTF-8" standalone="no"?>
<!DOCTYPE svg PUBLIC "-//W3C//DTD SVG 1.1//EN" "http://www.w3.org/Graphics/SVG/1.1/DTD/svg11.dtd">
<svg width="100%" height="100%" viewBox="0 0 800 800" version="1.1" xmlns="http://www.w3.org/2000/svg" xmlns:xlink="http://www.w3.org/1999/xlink" xml:space="preserve" xmlns:serif="http://www.serif.com/" style="fill-rule:evenodd;clip-rule:evenodd;stroke-linejoin:round;stroke-miterlimit:2;">
    <g transform="matrix(1.855072,0,0,1.855072,82.847536,0)">
        <path d="M30.954,51.315C30.998,51.366 31.04,51.414 31.08,51.46L31.26,51.53L30.97,51.56C30.965,51.478 30.959,51.396 30.954,51.315ZM30.954,51.315C27.054,46.809 6.985,22.96 0.36,15L0.36,6.41C1.73,8 18.09,27.27 25.51,36.2C30.145,41.784 30.502,44.438 30.954,51.315ZM310.698,51.515L310.63,51.51L310.8,51.43L310.833,51.463L310.84,51.46C310.879,51.415 310.921,51.367 310.964,51.317C310.959,51.397 310.955,51.478 310.95,51.56L310.66,51.53L310.698,51.515ZM310.964,51.317C311.369,44.438 311.774,41.785 316.41,36.2C323.83,27.27 340.19,8 341.56,6.41L341.56,14.96C334.914,22.961 314.859,46.816 310.964,51.317ZM93.46,138.56C99.74,131.93 107.4,134.75 115.59,133.83C111.66,140.39 108.25,146.1 104.66,152.11L112.43,161.57C113.49,159.91 127.92,134.94 134.6,123.85C142.86,110.15 147.23,96.25 147.19,76.55L154.8,71.83L154.8,77.55C154.8,93.55 154.74,109.48 154.8,125.45C154.919,131.779 153.259,138.017 150.01,143.45C142.69,155.7 135.59,168.08 128.22,180.73C132.49,185.99 136.65,191.35 141.07,196.48C144.034,199.898 145.715,204.247 145.82,208.77C146.61,229.37 147.91,273.18 147.98,275.08C147.98,277.23 145.54,278.08 143.98,276.13C136.42,267.13 128.91,258.13 120.72,248.36C120.59,251.09 120.45,252.69 120.45,254.29L120.45,363.55C120.45,370.86 120.56,378.18 120.86,385.49C121.55,402.76 128.86,416.72 142.21,427.65C143.548,428.929 144.961,430.128 146.44,431.24C143.89,431.24 142.64,431.18 141.06,430.39C123.42,421.56 111.34,407.83 105.06,389.11C102.96,382.974 101.876,376.536 101.85,370.05C101.85,357.57 101.78,329.35 101.78,327.24C100.08,327.81 81.13,335.5 72.88,338.97C66.179,341.651 60.632,346.61 57.22,352.97C55.279,356.911 52.015,360.047 48,361.83C49.377,356.622 51.346,351.589 53.87,346.83C57.392,339.787 63.034,334.022 70,330.35C75.53,327.35 81,324.21 86.66,321.35C94.72,317.35 98.57,310.11 101.56,302.2C101.84,301.45 101.84,251.86 101.17,227.56C98.64,231.69 96.11,235.82 93.34,240.36L76,224.71L88,203.85L79.34,193.59C78.14,195.33 64.73,216.59 59.17,226.04C54.3,234.31 47.17,238.04 37.72,238.04L22.53,238.04C22.719,235.429 24.855,233.349 27.47,233.23C34.11,232.37 38.55,228.6 41.93,223.01C50.51,208.8 59.27,194.7 68.19,180.17C64.68,175.9 53.67,162.69 51.82,160.34C47.831,155.352 45.764,149.093 46,142.71C46.001,142.214 46.078,141.722 46.23,141.25C46.32,141.02 46.55,140.57 46.99,140.58C47.469,140.653 47.862,141.003 47.99,141.47C49.38,148.31 53.99,153.2 58.23,158.29C62.47,163.38 67,168.73 71.7,174.38L89.7,145.16L47.72,94.1L47,89.71L5.86,39.62C2.45,35.45 -0.14,30.92 0,25L93.46,138.56ZM127.64,239.17C130.22,238.38 130,235.44 129.92,233.49C129.65,226.7 129.52,219.91 128.97,213.14C128.41,206.14 125.07,200.53 119.57,195.69C115.32,202.96 111.34,209.8 107.18,216.91C113.02,223.91 118.8,230.91 124.71,237.84C125.42,238.68 126.7,239.46 127.64,239.17ZM91.43,198.05C97.35,187.87 102.91,178.28 108.69,168.32C106.03,165.14 103.47,162.06 100.57,158.58C94.38,168.66 88.57,178.1 82.75,187.58L91.43,198.05ZM162.94,0.35L169.68,0L169.68,340.37C169.68,340.37 167.47,336.01 166.6,333.79C163.6,326.26 162.89,318.49 162.9,310.41C163,209.61 162.94,3.4 162.94,0.35ZM91.21,244.35C85.73,253.72 80.6,262.63 75.32,271.45C71.64,277.59 66.18,280.99 58.93,281.06C48.82,281.15 38.7,281.06 27.77,281.06L31.05,275.54L37.1,274.41C44.581,273.12 51.04,268.392 54.53,261.65C59.86,252.09 72.71,230.44 73.81,228.65L91.21,244.35ZM341.91,25C342.06,31 339.47,35.48 336.06,39.65L294.92,89.71L294.2,94.1L252.26,145.16L270.26,174.38C275,168.73 279.36,163.5 283.73,158.29C288.1,153.08 292.57,148.29 293.97,141.47C294.098,141.003 294.491,140.653 294.97,140.58C295.41,140.58 295.64,141.02 295.73,141.25C295.877,141.723 295.954,142.215 295.96,142.71C296.195,149.075 294.14,155.319 290.17,160.3C288.32,162.65 277.31,175.86 273.8,180.13C282.65,194.66 291.4,208.76 300,223C303.38,228.59 307.82,232.36 314.46,233.22C317.073,233.344 319.207,235.421 319.4,238.03L304.21,238.03C294.8,238.09 287.63,234.34 282.76,226.03C277.2,216.59 263.76,195.32 262.59,193.58C259.59,197.17 256.8,200.43 253.93,203.84C257.93,210.84 261.86,217.67 265.93,224.7L248.59,240.4C245.82,235.86 243.29,231.73 240.76,227.6C240.09,251.9 240.09,301.49 240.37,302.24C243.37,310.15 247.21,317.35 255.27,321.39C260.91,324.21 266.4,327.32 271.93,330.39C278.897,334.063 284.543,339.827 288.07,346.87C290.594,351.629 292.563,356.662 293.94,361.87C289.901,360.103 286.61,356.969 284.65,353.02C281.244,346.654 275.701,341.688 269,339C260.75,335.53 241.8,327.84 240.1,327.27C240.1,329.38 240.02,357.6 240.02,370.08C240.002,376.565 238.921,383.004 236.82,389.14C230.55,407.86 218.47,421.59 200.82,430.42C199.24,431.21 197.99,431.26 195.44,431.27C196.919,430.158 198.332,428.959 199.67,427.68C213,416.73 220.33,402.77 221,385.5C221.3,378.19 221.4,370.87 221.4,363.56C221.44,327.14 221.44,290.72 221.4,254.3C221.4,252.7 221.26,251.1 221.13,248.37C212.94,258.16 205.43,267.12 197.87,276.14C196.32,278.14 193.87,277.24 193.87,275.09C193.94,273.19 195.24,229.38 196.03,208.78C196.13,204.256 197.811,199.906 200.78,196.49C205.2,191.36 209.36,186 213.63,180.74C206.25,168.09 199.15,155.74 191.84,143.46C188.591,138.027 186.931,131.789 187.05,125.46C187.14,109.46 187.05,93.53 187.05,77.56L187.05,71.83L194.66,76.55C194.66,96.25 198.98,110.15 207.25,123.85C213.93,134.94 228.36,159.91 229.42,161.57L237.19,152.11C233.6,146.11 230.19,140.39 226.26,133.83C234.45,134.75 242.11,131.93 248.39,138.56L341.91,25ZM217.21,237.84C223.12,230.94 228.9,223.92 234.73,216.91C230.58,209.8 226.6,202.96 222.35,195.69C216.85,200.53 213.51,206.16 212.94,213.14C212.4,219.91 212.27,226.7 212,233.49C211.92,235.44 211.7,238.38 214.28,239.17C215.21,239.46 216.49,238.68 217.21,237.84ZM259.21,187.63C253.36,178.1 247.58,168.63 241.39,158.63L233.27,168.37L250.52,198.1L259.21,187.63ZM179,0.35C179,3.4 178.91,209.61 179.02,310.41C179.03,318.49 178.32,326.26 175.32,333.79C174.45,336.01 172.24,340.37 172.24,340.37L172.24,0L179,0.35ZM250.71,244.35L268.11,228.65C269.21,230.44 282.06,252.09 287.39,261.65C290.88,268.392 297.339,273.12 304.82,274.41L310.87,275.54L314.15,281.06C303.22,281.06 293.1,281.15 282.98,281.06C275.74,280.99 270.27,277.59 266.6,271.45C261.32,262.63 256.19,253.72 250.71,244.35Z" style="fill:white;"/>
    </g>
</svg>
