<?xml version="1.0" encoding="UTF-8" standalone="no"?>
<!DOCTYPE svg PUBLIC "-//W3C//DTD SVG 1.1//EN" "http://www.w3.org/Graphics/SVG/1.1/DTD/svg11.dtd">
<svg width="100%" height="100%" viewBox="0 0 528 491" version="1.1" xmlns="http://www.w3.org/2000/svg" xmlns:xlink="http://www.w3.org/1999/xlink" xml:space="preserve" xmlns:serif="http://www.serif.com/" style="fill-rule:evenodd;clip-rule:evenodd;stroke-linejoin:round;stroke-miterlimit:2;">
    <g transform="matrix(15.9995,0,0,15.9995,8.016,-10.847411)">
        <path d="M15.999,3.73C16.09,3.736 16.176,3.749 16.255,3.767C17.003,3.824 17.636,4.069 18.153,4.5L18.158,4.504C18.667,4.936 19.056,5.506 19.274,6.182L19.27,6.161C19.33,6.397 19.361,6.643 19.361,6.897L19.361,12.995C19.362,13.016 19.362,13.037 19.362,13.058C19.362,13.475 19.267,13.87 19.103,14.206L19.092,14.228C18.891,14.604 18.632,14.946 18.326,15.241C18.148,15.417 17.95,15.574 17.722,15.716L17.731,15.71C17.523,15.845 17.293,15.948 17.031,16.018L17.061,16.01C16.724,16.112 16.368,16.173 15.999,16.187L15.999,3.73ZM15.999,17.879C16.047,17.884 16.095,17.887 16.144,17.887C16.276,17.887 16.403,17.866 16.514,17.829L16.527,17.829C16.815,17.829 17.092,17.782 17.333,17.7L17.373,17.688C17.624,17.603 17.866,17.501 18.067,17.398L18.098,17.385C18.69,17.119 19.219,16.741 19.663,16.276L19.659,16.28C20.096,15.809 20.457,15.268 20.741,14.637L20.73,14.669C20.847,14.379 20.937,14.075 21,13.731L20.995,13.765C21.055,13.439 21.086,13.103 21.086,12.759L21.086,3.637L21.172,3.594L21.238,3.568C21.619,3.403 21.987,3.215 22.294,3.033C22.639,2.832 22.984,2.616 23.329,2.386L23.292,2.409C23.644,2.173 24.011,1.958 24.451,1.739L24.415,1.756C24.82,1.551 25.251,1.389 25.745,1.265L25.708,1.27C26.056,1.209 26.414,1.178 26.779,1.178L26.821,1.178C27.142,1.178 27.457,1.209 27.73,1.264L27.754,1.267C28.148,1.322 28.526,1.428 28.851,1.566L28.877,1.576C29.214,1.718 29.527,1.907 29.8,2.127L29.814,2.136C30.182,2.396 30.51,2.709 30.792,3.076L30.777,3.055C31.052,3.426 31.296,3.821 31.525,4.284L31.517,4.266C31.637,4.508 31.727,4.768 31.784,5.061C31.842,5.348 31.899,5.607 31.957,5.837L31.954,5.812C31.984,6.031 32,6.256 32,6.484C32,6.712 31.985,6.937 31.957,7.131L31.958,7.131L31.955,7.158C31.89,7.583 31.77,7.989 31.613,8.339L31.613,8.253L31.605,8.279C31.492,8.615 31.331,8.929 31.138,9.202L31.126,9.22C30.936,9.491 30.723,9.744 30.491,9.978L29.628,10.668L28.765,11.272L28.74,11.284C28.502,11.407 28.275,11.55 28.075,11.704L27.385,12.222C27.212,12.395 27.025,12.567 26.824,12.74C26.623,12.913 26.407,13.085 26.177,13.258C25.832,13.661 25.501,14.049 25.185,14.423C24.869,14.797 24.538,15.185 24.193,15.588L24.216,15.554C23.934,15.945 23.677,16.354 23.416,16.839C23.186,17.27 22.956,17.716 22.726,18.176L22.208,19.556L21.777,20.936L21.791,20.889C21.672,21.239 21.582,21.603 21.518,22.014C21.463,22.368 21.409,22.71 21.354,23.039C21.354,23.041 21.353,23.043 21.353,23.045C21.289,23.361 21.244,23.684 21.216,24.041C21.187,24.386 21.144,24.731 21.087,25.076L21.087,25.077C21.086,25.274 21.07,25.468 21.044,25.636L21.047,25.614C21.018,25.804 21.002,25.998 21.001,26.197L20.997,26.232C20.938,26.699 20.832,27.151 20.699,27.535L20.692,27.56C20.548,27.983 20.328,28.371 20.052,28.7L20.041,28.719C19.678,29.301 19.186,29.794 18.585,30.167C18.24,30.339 17.923,30.483 17.636,30.598L17.653,30.592C17.363,30.708 17.047,30.771 16.716,30.771L16.691,30.771C16.47,30.827 16.238,30.858 15.999,30.858L15.999,17.879Z" style="fill:none;stroke:white;stroke-width:1px;"/>
        <path d="M15.999,3.73C16.09,3.736 16.176,3.749 16.255,3.767C17.003,3.824 17.636,4.069 18.153,4.5L18.158,4.504C18.667,4.936 19.056,5.506 19.274,6.182L19.27,6.161C19.33,6.397 19.361,6.643 19.361,6.897L19.361,12.995C19.362,13.016 19.362,13.037 19.362,13.058C19.362,13.475 19.267,13.87 19.103,14.206L19.092,14.228C18.891,14.604 18.632,14.946 18.326,15.241C18.148,15.417 17.95,15.574 17.722,15.716L17.731,15.71C17.523,15.845 17.293,15.948 17.031,16.018L17.061,16.01C16.724,16.112 16.368,16.173 15.999,16.187L15.999,3.73ZM15.999,17.879C16.047,17.884 16.095,17.887 16.144,17.887C16.276,17.887 16.403,17.866 16.514,17.829L16.527,17.829C16.815,17.829 17.092,17.782 17.333,17.7L17.373,17.688C17.624,17.603 17.866,17.501 18.067,17.398L18.098,17.385C18.69,17.119 19.219,16.741 19.663,16.276L19.659,16.28C20.096,15.809 20.457,15.268 20.741,14.637L20.73,14.669C20.847,14.379 20.937,14.075 21,13.731L20.995,13.765C21.055,13.439 21.086,13.103 21.086,12.759L21.086,3.637L21.172,3.594L21.238,3.568C21.619,3.403 21.987,3.215 22.294,3.033C22.639,2.832 22.984,2.616 23.329,2.386L23.292,2.409C23.644,2.173 24.011,1.958 24.451,1.739L24.415,1.756C24.82,1.551 25.251,1.389 25.745,1.265L25.708,1.27C26.056,1.209 26.414,1.178 26.779,1.178L26.821,1.178C27.142,1.178 27.457,1.209 27.73,1.264L27.754,1.267C28.148,1.322 28.526,1.428 28.851,1.566L28.877,1.576C29.214,1.718 29.527,1.907 29.8,2.127L29.814,2.136C30.182,2.396 30.51,2.709 30.792,3.076L30.777,3.055C31.052,3.426 31.296,3.821 31.525,4.284L31.517,4.266C31.637,4.508 31.727,4.768 31.784,5.061C31.842,5.348 31.899,5.607 31.957,5.837L31.954,5.812C31.984,6.031 32,6.256 32,6.484C32,6.712 31.985,6.937 31.957,7.131L31.958,7.131L31.955,7.158C31.89,7.583 31.77,7.989 31.613,8.339L31.613,8.253L31.605,8.279C31.492,8.615 31.331,8.929 31.138,9.202L31.126,9.22C30.936,9.491 30.723,9.744 30.491,9.978L29.628,10.668L28.765,11.272L28.74,11.284C28.502,11.407 28.275,11.55 28.075,11.704L27.385,12.222C27.212,12.395 27.025,12.567 26.824,12.74C26.623,12.913 26.407,13.085 26.177,13.258C25.832,13.661 25.501,14.049 25.185,14.423C24.869,14.797 24.538,15.185 24.193,15.588L24.216,15.554C23.934,15.945 23.677,16.354 23.416,16.839C23.186,17.27 22.956,17.716 22.726,18.176L22.208,19.556L21.777,20.936L21.791,20.889C21.672,21.239 21.582,21.603 21.518,22.014C21.463,22.368 21.409,22.71 21.354,23.039C21.354,23.041 21.353,23.043 21.353,23.045C21.289,23.361 21.244,23.684 21.216,24.041C21.187,24.386 21.144,24.731 21.087,25.076L21.087,25.077C21.086,25.274 21.07,25.468 21.044,25.636L21.047,25.614C21.018,25.804 21.002,25.998 21.001,26.197L20.997,26.232C20.938,26.699 20.832,27.151 20.699,27.535L20.692,27.56C20.548,27.983 20.328,28.371 20.052,28.7L20.041,28.719C19.678,29.301 19.186,29.794 18.585,30.167C18.24,30.339 17.923,30.483 17.636,30.598L17.653,30.592C17.363,30.708 17.047,30.771 16.716,30.771L16.691,30.771C16.47,30.827 16.238,30.858 15.999,30.858L15.999,17.879Z" style="fill:white;fill-opacity:0;"/>
    </g>
    <g transform="matrix(-15.9995,0,0,15.9995,519.984,-10.847393)">
        <path d="M15.999,3.73C16.09,3.736 16.176,3.749 16.255,3.767C17.003,3.824 17.636,4.069 18.153,4.5L18.158,4.504C18.667,4.936 19.056,5.506 19.274,6.182L19.27,6.161C19.33,6.397 19.361,6.643 19.361,6.897L19.361,12.995C19.362,13.016 19.362,13.037 19.362,13.058C19.362,13.475 19.267,13.87 19.103,14.206L19.092,14.228C18.891,14.604 18.632,14.946 18.326,15.241C18.148,15.417 17.95,15.574 17.722,15.716L17.731,15.71C17.523,15.845 17.293,15.948 17.031,16.018L17.061,16.01C16.724,16.112 16.368,16.173 15.999,16.187L15.999,3.73ZM15.999,17.879C16.047,17.884 16.095,17.887 16.144,17.887C16.276,17.887 16.403,17.866 16.514,17.829L16.527,17.829C16.815,17.829 17.092,17.782 17.333,17.7L17.373,17.688C17.624,17.603 17.866,17.501 18.067,17.398L18.098,17.385C18.69,17.119 19.219,16.741 19.663,16.276L19.659,16.28C20.096,15.809 20.457,15.268 20.741,14.637L20.73,14.669C20.847,14.379 20.937,14.075 21,13.731L20.995,13.765C21.055,13.439 21.086,13.103 21.086,12.759L21.086,3.637L21.172,3.594L21.238,3.568C21.619,3.403 21.987,3.215 22.294,3.033C22.639,2.832 22.984,2.616 23.329,2.386L23.292,2.409C23.644,2.173 24.011,1.958 24.451,1.739L24.415,1.756C24.82,1.551 25.251,1.389 25.745,1.265L25.708,1.27C26.056,1.209 26.414,1.178 26.779,1.178L26.821,1.178C27.142,1.178 27.457,1.209 27.73,1.264L27.754,1.267C28.148,1.322 28.526,1.428 28.851,1.566L28.877,1.576C29.214,1.718 29.527,1.907 29.8,2.127L29.814,2.136C30.182,2.396 30.51,2.709 30.792,3.076L30.777,3.055C31.052,3.426 31.296,3.821 31.525,4.284L31.517,4.266C31.637,4.508 31.727,4.768 31.784,5.061C31.842,5.348 31.899,5.607 31.957,5.837L31.954,5.812C31.984,6.031 32,6.256 32,6.484C32,6.712 31.985,6.937 31.957,7.131L31.958,7.131L31.955,7.158C31.89,7.583 31.77,7.989 31.613,8.339L31.613,8.253L31.605,8.279C31.492,8.615 31.331,8.929 31.138,9.202L31.126,9.22C30.936,9.491 30.723,9.744 30.491,9.978L29.628,10.668L28.765,11.272L28.74,11.284C28.502,11.407 28.275,11.55 28.075,11.704L27.385,12.222C27.212,12.395 27.025,12.567 26.824,12.74C26.623,12.913 26.407,13.085 26.177,13.258C25.832,13.661 25.501,14.049 25.185,14.423C24.869,14.797 24.538,15.185 24.193,15.588L24.216,15.554C23.934,15.945 23.677,16.354 23.416,16.839C23.186,17.27 22.956,17.716 22.726,18.176L22.208,19.556L21.777,20.936L21.791,20.889C21.672,21.239 21.582,21.603 21.518,22.014C21.463,22.368 21.409,22.71 21.354,23.039C21.354,23.041 21.353,23.043 21.353,23.045C21.289,23.361 21.244,23.684 21.216,24.041C21.187,24.386 21.144,24.731 21.087,25.076L21.087,25.077C21.086,25.274 21.07,25.468 21.044,25.636L21.047,25.614C21.018,25.804 21.002,25.998 21.001,26.197L20.997,26.232C20.938,26.699 20.832,27.151 20.699,27.535L20.692,27.56C20.548,27.983 20.328,28.371 20.052,28.7L20.041,28.719C19.678,29.301 19.186,29.794 18.585,30.167C18.24,30.339 17.923,30.483 17.636,30.598L17.653,30.592C17.363,30.708 17.047,30.771 16.716,30.771L16.691,30.771C16.47,30.827 16.238,30.858 15.999,30.858L15.999,17.879Z" style="fill:none;stroke:white;stroke-width:1px;"/>
        <path d="M15.999,3.73C16.09,3.736 16.176,3.749 16.255,3.767C17.003,3.824 17.636,4.069 18.153,4.5L18.158,4.504C18.667,4.936 19.056,5.506 19.274,6.182L19.27,6.161C19.33,6.397 19.361,6.643 19.361,6.897L19.361,12.995C19.362,13.016 19.362,13.037 19.362,13.058C19.362,13.475 19.267,13.87 19.103,14.206L19.092,14.228C18.891,14.604 18.632,14.946 18.326,15.241C18.148,15.417 17.95,15.574 17.722,15.716L17.731,15.71C17.523,15.845 17.293,15.948 17.031,16.018L17.061,16.01C16.724,16.112 16.368,16.173 15.999,16.187L15.999,3.73ZM15.999,17.879C16.047,17.884 16.095,17.887 16.144,17.887C16.276,17.887 16.403,17.866 16.514,17.829L16.527,17.829C16.815,17.829 17.092,17.782 17.333,17.7L17.373,17.688C17.624,17.603 17.866,17.501 18.067,17.398L18.098,17.385C18.69,17.119 19.219,16.741 19.663,16.276L19.659,16.28C20.096,15.809 20.457,15.268 20.741,14.637L20.73,14.669C20.847,14.379 20.937,14.075 21,13.731L20.995,13.765C21.055,13.439 21.086,13.103 21.086,12.759L21.086,3.637L21.172,3.594L21.238,3.568C21.619,3.403 21.987,3.215 22.294,3.033C22.639,2.832 22.984,2.616 23.329,2.386L23.292,2.409C23.644,2.173 24.011,1.958 24.451,1.739L24.415,1.756C24.82,1.551 25.251,1.389 25.745,1.265L25.708,1.27C26.056,1.209 26.414,1.178 26.779,1.178L26.821,1.178C27.142,1.178 27.457,1.209 27.73,1.264L27.754,1.267C28.148,1.322 28.526,1.428 28.851,1.566L28.877,1.576C29.214,1.718 29.527,1.907 29.8,2.127L29.814,2.136C30.182,2.396 30.51,2.709 30.792,3.076L30.777,3.055C31.052,3.426 31.296,3.821 31.525,4.284L31.517,4.266C31.637,4.508 31.727,4.768 31.784,5.061C31.842,5.348 31.899,5.607 31.957,5.837L31.954,5.812C31.984,6.031 32,6.256 32,6.484C32,6.712 31.985,6.937 31.957,7.131L31.958,7.131L31.955,7.158C31.89,7.583 31.77,7.989 31.613,8.339L31.613,8.253L31.605,8.279C31.492,8.615 31.331,8.929 31.138,9.202L31.126,9.22C30.936,9.491 30.723,9.744 30.491,9.978L29.628,10.668L28.765,11.272L28.74,11.284C28.502,11.407 28.275,11.55 28.075,11.704L27.385,12.222C27.212,12.395 27.025,12.567 26.824,12.74C26.623,12.913 26.407,13.085 26.177,13.258C25.832,13.661 25.501,14.049 25.185,14.423C24.869,14.797 24.538,15.185 24.193,15.588L24.216,15.554C23.934,15.945 23.677,16.354 23.416,16.839C23.186,17.27 22.956,17.716 22.726,18.176L22.208,19.556L21.777,20.936L21.791,20.889C21.672,21.239 21.582,21.603 21.518,22.014C21.463,22.368 21.409,22.71 21.354,23.039C21.354,23.041 21.353,23.043 21.353,23.045C21.289,23.361 21.244,23.684 21.216,24.041C21.187,24.386 21.144,24.731 21.087,25.076L21.087,25.077C21.086,25.274 21.07,25.468 21.044,25.636L21.047,25.614C21.018,25.804 21.002,25.998 21.001,26.197L20.997,26.232C20.938,26.699 20.832,27.151 20.699,27.535L20.692,27.56C20.548,27.983 20.328,28.371 20.052,28.7L20.041,28.719C19.678,29.301 19.186,29.794 18.585,30.167C18.24,30.339 17.923,30.483 17.636,30.598L17.653,30.592C17.363,30.708 17.047,30.771 16.716,30.771L16.691,30.771C16.47,30.827 16.238,30.858 15.999,30.858L15.999,17.879Z" style="fill:white;"/>
    </g>
</svg>
