<?xml version="1.0" encoding="UTF-8" standalone="no"?>
<!DOCTYPE svg PUBLIC "-//W3C//DTD SVG 1.1//EN" "http://www.w3.org/Graphics/SVG/1.1/DTD/svg11.dtd">
<svg width="100%" height="100%" viewBox="0 0 512 493" version="1.1" xmlns="http://www.w3.org/2000/svg" xmlns:xlink="http://www.w3.org/1999/xlink" xml:space="preserve" xmlns:serif="http://www.serif.com/" style="fill-rule:evenodd;clip-rule:evenodd;stroke-linejoin:round;stroke-miterlimit:2;">
    <g transform="matrix(1,0,0,1,0,-16)">
        <g transform="matrix(1.372654,0,0,1.372654,39.806971,-201.565684)">
            <path d="M78.252,350.132C83.213,347.799 86.37,342.8 86.346,337.318C86.321,331.836 83.12,326.865 78.138,324.576C14.846,295.387 -29,233.059 -29,158.5L-10.776,158.5C-10.776,221.502 35.126,286.357 102.233,310.171C138.059,322.885 157.5,361.756 157.5,361.756C157.5,361.756 182.162,319.763 205.481,313.572C283.337,292.903 328.915,223.196 329.43,158.5L344,158.5C344,230.844 302.72,292.161 242.449,322.551C236.617,325.51 232.934,331.489 232.914,338.029C232.895,344.57 236.542,350.57 242.357,353.564C302.265,384.22 343.434,446.681 343.994,517.1L308.26,517.1C306.663,438.877 236.98,374.59 157.5,374.59C78.02,374.59 7.625,438.877 6.012,517.1L-28.994,517.1C-28.416,444.505 15.319,379.849 78.252,350.132ZM6.746,158.5L19.481,158.5C20.656,214.1 55.752,258.93 106.561,277.124C122.436,282.809 139.112,271.323 157.5,271.323C174.882,271.323 192.16,283.138 207.381,278.034C259.797,260.461 296.522,215.051 297.716,158.5L310.451,158.5C308.838,236.723 244.265,306.838 157.5,306.838C79.261,306.838 8.343,236.723 6.746,158.5ZM50.496,158.5L59.895,158.5C60.674,212.051 109.46,245.392 157.5,245.392C210.455,245.392 257.958,211.433 259.459,158.5L268.158,158.5C266.634,215.628 217.631,257.916 157.5,257.916C97.369,257.916 52.021,215.628 50.496,158.5ZM94.684,158.5L101.586,158.5C106.422,186.237 129.23,208.768 157.5,208.768C185.77,208.768 210.035,186.237 214.871,158.5L221.839,158.5C220.925,189.403 190.293,216.815 157.5,216.815C125.162,216.815 96.375,188.886 94.684,158.5ZM15.104,517.1C16.646,444.127 79.533,385.335 156.771,385.335C234.01,385.335 296.897,444.127 298.439,517.1L267.424,517.1C265.899,459.972 216.903,414.041 156.771,414.041C96.64,414.041 47.644,459.972 46.119,517.1L15.104,517.1ZM54.818,517.1C56.319,464.167 101.173,424.38 157.5,424.38C214.282,424.38 257.974,463.549 258.753,517.1L220.322,517.1C218.631,486.714 189.109,460.97 156.771,460.97C123.978,460.97 94.081,486.197 93.166,517.1L54.818,517.1Z" style="fill:white;"/>
        </g>
    </g>
</svg>
