<?xml version="1.0" encoding="UTF-8" standalone="no"?>
<!DOCTYPE svg PUBLIC "-//W3C//DTD SVG 1.1//EN" "http://www.w3.org/Graphics/SVG/1.1/DTD/svg11.dtd">
<svg width="100%" height="100%" viewBox="0 0 800 800" version="1.1" xmlns="http://www.w3.org/2000/svg" xmlns:xlink="http://www.w3.org/1999/xlink" xml:space="preserve" xmlns:serif="http://www.serif.com/" style="fill-rule:evenodd;clip-rule:evenodd;stroke-linejoin:round;stroke-miterlimit:2;">
    <g transform="matrix(1.037592,-0.045234,0.045234,1.037592,-108.299161,-36.881201)">
        <path d="M243.82,703.273L89.753,696.556L169.101,569.158C182.491,620.189 208.596,666.093 243.82,703.273ZM169.101,569.158C162.51,544.038 159,517.676 159,490.5C159,340.718 265.629,215.644 407.055,187.11L169.101,569.158ZM407.055,187.11L487.346,58.197L556.108,193.595C528.326,185.399 498.923,181 468.5,181C447.465,181 426.916,183.103 407.055,187.11ZM556.108,193.595C684.317,231.418 778,350.105 778,490.5C778,527.132 771.622,562.287 759.917,594.913L556.108,193.595ZM759.917,594.913L827.878,728.735L673.815,722.019C712.288,687.869 742.203,644.287 759.917,594.913ZM673.815,722.019C619.166,770.527 547.248,800 468.5,800C380.065,800 300.244,762.829 243.82,703.273L673.815,722.019ZM480.032,225.979L689.758,638.949L235.162,619.131L480.032,225.979Z" style="fill:white;"/>
    </g>
</svg>
