<?xml version="1.0" encoding="UTF-8" standalone="no"?>
<!DOCTYPE svg PUBLIC "-//W3C//DTD SVG 1.1//EN" "http://www.w3.org/Graphics/SVG/1.1/DTD/svg11.dtd">
<svg width="100%" height="100%" viewBox="0 0 800 800" version="1.1" xmlns="http://www.w3.org/2000/svg" xmlns:xlink="http://www.w3.org/1999/xlink" xml:space="preserve" xmlns:serif="http://www.serif.com/" style="fill-rule:evenodd;clip-rule:evenodd;stroke-linejoin:round;stroke-miterlimit:2;">
    <g transform="matrix(1.179161,0,0,0.947919,-16.833545,25.007601)">
        <path d="M353.5,83L441,246L266,246L353.5,83ZM216.431,335.007L320.403,440.144C324.86,444.651 326.554,452.161 324.631,458.894C322.709,465.627 317.587,470.125 311.843,470.125L144.017,470.125L216.431,335.007ZM490.569,335.007L562.983,470.125L395.157,470.125C389.413,470.125 384.291,465.627 382.369,458.894C380.446,452.161 382.14,444.651 386.597,440.144L490.569,335.007ZM252.336,525.888L311.278,525.888C316.189,525.888 320.898,528.315 324.37,532.634C327.842,536.953 329.793,542.812 329.793,548.92L329.793,708.191L14.276,708.191L77.292,591.085C99.216,550.343 136.032,525.888 175.444,525.888L193.476,525.888C190.441,531.372 188.668,537.994 188.668,545.126L188.668,645.993L236.316,645.993L236.316,545.574C236.316,534.702 243.488,525.888 252.336,525.888ZM377.207,647.066L529.793,647.066L529.793,588.086L377.207,588.086L377.207,548.92C377.207,542.812 379.158,536.953 382.63,532.634C386.102,528.315 390.811,525.888 395.722,525.888L531.556,525.888C570.968,525.888 607.784,550.343 629.708,591.085L692.724,708.191L377.207,708.191L377.207,647.066ZM353.069,295.329C372.814,295.329 388.845,315.27 388.845,339.832C388.845,364.394 372.814,384.336 353.069,384.336C333.324,384.336 317.293,364.394 317.293,339.832C317.293,315.27 333.324,295.329 353.069,295.329Z" style="fill:white;"/>
    </g>
</svg>
