<?xml version="1.0" encoding="UTF-8" standalone="no"?>
<!DOCTYPE svg PUBLIC "-//W3C//DTD SVG 1.1//EN" "http://www.w3.org/Graphics/SVG/1.1/DTD/svg11.dtd">
<svg width="100%" height="100%" viewBox="0 0 785 800" version="1.1" xmlns="http://www.w3.org/2000/svg" xmlns:xlink="http://www.w3.org/1999/xlink" xml:space="preserve" xmlns:serif="http://www.serif.com/" style="fill-rule:evenodd;clip-rule:evenodd;stroke-linejoin:round;stroke-miterlimit:2;">
    <g transform="matrix(1,0,0,1,-7.914221,-0)">
        <g transform="matrix(2.550298,0,0,2.550298,-652.613048,-794.170087)">
            <path d="M316.894,571.577L260.694,625.092L260.668,588.068L527.655,333.406L527.585,370.956L383.238,508.404C402.168,524.675 426.784,534.513 453.679,534.513C511.973,534.513 545.017,495.412 563.153,433.017C585.966,536.443 487.39,622.414 394.162,607.482L421.364,581.638L389.169,573.764L345.95,614.613L346.142,592.813C335.222,587.1 325.69,579.929 316.894,571.577ZM277.427,532.243L277.395,532.273C266.978,511.607 259,486.704 259,462C259,377.557 340.096,296.882 438.379,313.624C391.033,321.149 332.862,365.503 332.862,426.652C332.862,431.551 333.308,436.634 334.097,441.713L426.207,354.653L426.365,391.736L277.431,532.273L277.427,532.243ZM443.378,521.949C434.416,520.196 425.849,517.334 417.826,513.513L483.502,451.904L517.486,451.904L443.378,521.949Z" style="fill:white;"/>
        </g>
    </g>
</svg>
