<?xml version="1.0" encoding="UTF-8" standalone="no"?>
<!DOCTYPE svg PUBLIC "-//W3C//DTD SVG 1.1//EN" "http://www.w3.org/Graphics/SVG/1.1/DTD/svg11.dtd">
<svg width="100%" height="100%" viewBox="0 0 150 150" version="1.1" xmlns="http://www.w3.org/2000/svg" xmlns:xlink="http://www.w3.org/1999/xlink" xml:space="preserve" xmlns:serif="http://www.serif.com/" style="fill-rule:evenodd;clip-rule:evenodd;stroke-linejoin:round;stroke-miterlimit:2;">
    <g transform="matrix(0.990845,0,0,0.990845,-9.717213,-8.917601)">
        <path d="M74.939,160.386C22.761,144.14 24.784,101.357 40.508,78.885C54.237,58.928 85.5,9 85.5,9C85.5,9 116.763,58.928 130.492,78.885C146.216,101.357 148.239,144.14 96.061,160.386C130.686,148.003 129.007,118.341 117.965,102.559C108.059,88.159 85.5,52.132 85.5,52.132C85.5,52.132 62.941,88.159 53.035,102.559C41.993,118.341 40.314,148.003 74.939,160.386ZM85.5,149.453C64.429,148.855 59.907,127.017 67.578,115.354C73.047,107.04 85.5,86.24 85.5,86.24C85.5,86.24 97.953,107.04 103.422,115.354C111.031,126.923 105.903,149.827 85.5,149.453Z" style="fill:rgb(240,99,30);"/>
    </g>
</svg>
