<?xml version="1.0" encoding="UTF-8" standalone="no"?>
<!DOCTYPE svg PUBLIC "-//W3C//DTD SVG 1.1//EN" "http://www.w3.org/Graphics/SVG/1.1/DTD/svg11.dtd">
<svg width="100%" height="100%" viewBox="0 0 562 562" version="1.1" xmlns="http://www.w3.org/2000/svg" xmlns:xlink="http://www.w3.org/1999/xlink" xml:space="preserve" xmlns:serif="http://www.serif.com/" style="fill-rule:evenodd;clip-rule:evenodd;stroke-linejoin:round;stroke-miterlimit:2;">
    <g transform="matrix(1.380798,0,0,1.076082,-257.700203,321.70881)">
        <path d="M575.537,19.469C575.537,68.669 543.737,104.669 496.337,104.669C474.737,104.669 455.537,94.469 426.737,78.269C428.537,106.469 440.537,155.669 456.137,184.469C459.137,192.269 456.737,195.869 448.337,197.069C432.737,198.869 409.937,200.069 390.137,200.069C367.937,200.069 346.937,198.869 331.337,197.069C322.937,195.869 319.937,192.269 323.537,184.469C338.537,153.269 350.537,108.269 353.537,78.269C324.137,94.469 305.537,104.669 283.337,104.669C235.937,104.669 204.737,68.669 204.737,19.469C204.737,-47.131 303.737,-167.731 390.137,-275.731C476.537,-167.731 575.537,-47.131 575.537,19.469Z" style="fill:white;fill-opacity:0;stroke:white;stroke-width:40.39px;"/>
    </g>
</svg>
