<?xml version="1.0" encoding="UTF-8" standalone="no"?>
<!DOCTYPE svg PUBLIC "-//W3C//DTD SVG 1.1//EN" "http://www.w3.org/Graphics/SVG/1.1/DTD/svg11.dtd">
<svg width="100%" height="100%" viewBox="0 0 150 150" version="1.1" xmlns="http://www.w3.org/2000/svg" xmlns:xlink="http://www.w3.org/1999/xlink" xml:space="preserve" xmlns:serif="http://www.serif.com/" style="fill-rule:evenodd;clip-rule:evenodd;stroke-linejoin:round;stroke-miterlimit:2;">
    <g transform="matrix(1,0,0,1,-149.743479,-1.397177)">
        <g transform="matrix(1.068856,0,0,1.068856,-25.24797,-20.936562)">
            <path d="M207.547,27.89L209.425,27.901L241.507,67.476L241.427,151.024L232.409,161.232L231.099,161.23C231.099,161.23 206.568,126.395 197.789,113.361C189.721,101.384 174.243,76.282 174.243,76.282L174.246,74.281C174.246,74.281 185.481,56.95 191.031,49.219C196.418,41.715 207.547,27.89 207.547,27.89ZM252.508,20.895L254.013,20.907C254.013,20.907 268.408,41.183 274.328,49.63C280.923,59.042 293.525,78.027 293.525,78.027L293.531,79.993C293.531,79.993 287.738,88.713 284.682,92.726C281.583,96.796 272.532,108.244 272.532,108.244L270.541,108.236C270.541,108.236 262.252,98.84 258.829,94.654C255.919,91.097 250.885,83.906 250.885,83.906L250.781,37.04L251.499,23.015L252.508,20.895Z" style="fill:rgb(71,102,151);"/>
        </g>
    </g>
</svg>
