<?xml version="1.0" encoding="UTF-8" standalone="no"?>
<!DOCTYPE svg PUBLIC "-//W3C//DTD SVG 1.1//EN" "http://www.w3.org/Graphics/SVG/1.1/DTD/svg11.dtd">
<svg width="100%" height="100%" viewBox="0 0 150 150" version="1.1" xmlns="http://www.w3.org/2000/svg" xmlns:xlink="http://www.w3.org/1999/xlink" xml:space="preserve" xmlns:serif="http://www.serif.com/" style="fill-rule:evenodd;clip-rule:evenodd;stroke-linejoin:round;stroke-miterlimit:2;">
    <g transform="matrix(0.873205,0,0,0.873205,-106.179962,-212.188775)">
        <path d="M186.902,414.776L186.909,414.78L186.908,414.781L186.902,414.776ZM207.502,322.011L221.227,310.096C224.488,307.265 226.353,303.153 226.333,298.834C226.313,294.516 224.411,290.421 221.124,287.62L207.489,276L193.853,287.62C190.566,290.421 188.664,294.516 188.645,298.834C188.625,303.153 190.489,307.265 193.75,310.096L198.533,314.248L179.368,330.61L168.844,321.474C162.211,315.715 158.418,307.35 158.458,298.566C158.499,289.782 162.367,281.452 169.053,275.755L207.489,243L245.924,275.755C252.61,281.452 256.479,289.782 256.519,298.566C256.559,307.35 252.767,315.715 246.134,321.474L217.427,346.395L207.521,355.027L207.502,355.011L207.489,355.023L207.476,355.011L183.212,375.689C178.222,379.941 175.334,386.158 175.304,392.714C175.274,399.27 178.105,406.513 183.055,410.811L186.902,414.776C177.275,408.18 168.844,400.474 168.844,400.474C162.211,394.715 158.418,386.35 158.458,377.566C158.499,368.782 162.367,360.452 169.053,354.755L188.293,338.358L188.264,338.333L207.428,321.97L207.476,322.011L207.489,322L207.502,322.011ZM228.876,414.219L231.922,410.811C236.873,406.513 239.703,399.27 239.673,392.714C239.643,386.158 236.756,379.941 231.766,375.689L216.033,362.281L235.178,345.597L245.924,354.755C252.61,360.452 256.479,368.782 256.519,377.566C256.559,386.35 252.767,394.715 246.134,400.474C246.134,400.474 238.167,407.756 228.878,414.221L228.876,414.219Z" style="fill:rgb(53,227,102);"/>
    </g>
</svg>
