<?xml version="1.0" encoding="UTF-8" standalone="no"?>
<!-- Created with Inkscape (http://www.inkscape.org/) -->

<svg
   width="137.48074mm"
   height="182.51559mm"
   viewBox="0 0 137.48074 182.51559"
   version="1.1"
   id="svg1"
   xml:space="preserve"
   inkscape:export-filename="vex.svg"
   inkscape:export-xdpi="96"
   inkscape:export-ydpi="96"
   xmlns:inkscape="http://www.inkscape.org/namespaces/inkscape"
   xmlns:sodipodi="http://sodipodi.sourceforge.net/DTD/sodipodi-0.dtd"
   xmlns="http://www.w3.org/2000/svg"
   xmlns:svg="http://www.w3.org/2000/svg"><sodipodi:namedview
     id="namedview1"
     pagecolor="#ffffff"
     bordercolor="#000000"
     borderopacity="0.25"
     inkscape:showpageshadow="2"
     inkscape:pageopacity="0.0"
     inkscape:pagecheckerboard="0"
     inkscape:deskcolor="#d1d1d1"
     inkscape:document-units="mm" /><defs
     id="defs1" /><path
     style="fill:#000000"
     d="m 68.460936,181.98491 c -0.254661,-0.27892 -0.46302,-0.79204 -0.46302,-1.14027 0,-0.34823 -0.165387,-0.69662 -0.367527,-0.77419 -0.241393,-0.0926 -0.370704,-0.57906 -0.376786,-1.41737 -0.0051,-0.70198 -0.0183,-1.78235 -0.02935,-2.40081 -0.01705,-0.95455 -0.102912,-1.12448 -0.568155,-1.12448 -0.301436,0 -0.735164,-0.1871 -0.963841,-0.41578 -0.331043,-0.33104 -0.427293,-1.15074 -0.472295,-4.02223 -0.03801,-2.42548 -0.155597,-3.63949 -0.359076,-3.70732 -0.181106,-0.0604 -0.302556,-0.72297 -0.302556,-1.65069 0,-0.85241 -0.128709,-1.62938 -0.286021,-1.72661 -0.157312,-0.0972 -0.219513,-0.44176 -0.138224,-0.76564 0.08129,-0.32389 0.02073,-0.99551 -0.134573,-1.49249 -0.155305,-0.49699 -0.269865,-1.72889 -0.254578,-2.73757 0.01823,-1.20313 -0.08537,-1.90389 -0.301198,-2.03728 -0.198874,-0.12291 -0.36889,-0.9934 -0.429868,-2.20094 -0.05548,-1.09869 -0.206924,-1.99762 -0.33654,-1.99762 -0.129615,0 -0.235664,-1.35464 -0.235664,-3.01031 0,-2.35305 -0.08665,-3.08223 -0.396875,-3.33969 -0.261744,-0.21723 -0.396875,-0.80851 -0.396875,-1.73657 0,-0.77396 -0.119063,-1.48078 -0.264584,-1.57072 -0.14552,-0.0899 -0.268802,-0.60298 -0.273959,-1.14009 -0.0052,-0.53712 -0.179531,-1.27423 -0.387499,-1.63803 -0.207968,-0.36381 -0.382343,-0.91477 -0.387499,-1.22438 -0.0052,-0.3096 -0.18797,-0.71113 -0.406251,-0.89229 -0.218281,-0.18116 -0.396875,-0.60543 -0.396875,-0.94282 0,-0.3374 -0.119062,-0.68704 -0.264583,-0.77697 -0.145521,-0.0899 -0.264584,-0.4314 -0.264584,-0.7588 0,-0.3274 -0.174807,-0.82639 -0.38846,-1.10886 -0.213653,-0.28248 -0.392247,-0.72195 -0.396875,-0.97661 -0.0046,-0.25466 -0.12607,-0.46302 -0.269871,-0.46302 -0.143801,0 -0.337612,-0.47625 -0.430691,-1.05834 -0.09308,-0.58208 -0.27308,-1.05833 -0.400002,-1.05833 -0.126922,0 -0.230767,-0.46922 -0.230767,-1.04272 0,-0.57349 -0.109902,-1.11064 -0.244227,-1.19366 -0.134325,-0.083 -0.322379,-0.50676 -0.417898,-0.94165 -0.09552,-0.4349 -0.265708,-0.79072 -0.378198,-0.79072 -0.11249,0 -0.284359,-1.03858 -0.381931,-2.30795 -0.09757,-1.26938 -0.29373,-2.42428 -0.435908,-2.56646 -0.142178,-0.14218 -0.258505,-0.46366 -0.258505,-0.7144 0,-0.25075 -0.327422,-0.79248 -0.727604,-1.20386 -0.400182,-0.41138 -0.896551,-1.07538 -1.103043,-1.47556 -0.206491,-0.40018 -0.474381,-0.7276 -0.595312,-0.7276 -0.120931,0 -0.219874,-0.22962 -0.219874,-0.51027 0,-0.28065 -0.162886,-0.67316 -0.361968,-0.87224 -0.199083,-0.19908 -0.445231,-0.6243 -0.546996,-0.94494 -0.101766,-0.32063 -0.296068,-0.58297 -0.431782,-0.58297 -0.135715,0 -0.246754,-0.30468 -0.246754,-0.67707 0,-0.37239 -0.11055,-0.60875 -0.245667,-0.52525 -0.135117,0.0835 -0.286772,-0.11782 -0.337011,-0.4474 -0.05024,-0.32958 -0.237345,-0.56947 -0.415791,-0.53309 -0.178446,0.0364 -0.324448,-0.18338 -0.324448,-0.48835 0,-0.30497 -0.208359,-0.93004 -0.463021,-1.38906 -0.254661,-0.45901 -0.522552,-0.8941 -0.595312,-0.96686 -0.07276,-0.0728 -0.284577,-0.37042 -0.470702,-0.66146 -0.186126,-0.29104 -0.406218,-0.72929 -0.489094,-0.97389 -0.08288,-0.24459 -0.317544,-0.50875 -0.521485,-0.58701 -0.203941,-0.0783 -0.370802,-0.32462 -0.370802,-0.54747 0,-0.22284 -0.119063,-0.40517 -0.264584,-0.40517 -0.145521,0 -0.264583,-0.16402 -0.264583,-0.36448 0,-0.20047 -0.178594,-0.5127 -0.396875,-0.69386 -0.218281,-0.18115 -0.396875,-0.55292 -0.396875,-0.82614 0,-0.27323 -0.119063,-0.49677 -0.264583,-0.49677 -0.145521,0 -0.264584,-0.24187 -0.264584,-0.53747 0,-0.29561 -0.178593,-0.60601 -0.396875,-0.68977 -0.218281,-0.0838 -0.396875,-0.38142 -0.396875,-0.66146 0,-0.28004 -0.178593,-0.57769 -0.396875,-0.66146 -0.218281,-0.0838 -0.396875,-0.30076 -0.396875,-0.48222 0,-0.18147 -0.297656,-0.65111 -0.661458,-1.04366 -0.363802,-0.392545 -0.661458,-0.825065 -0.661458,-0.961145 0,-0.13608 -0.327422,-0.72074 -0.727604,-1.29924 -0.400183,-0.5785 -0.876433,-1.05634 -1.058334,-1.06187 -0.181901,-0.006 -0.330729,-0.18334 -0.330729,-0.395162 0,-0.211819 -0.297656,-0.823746 -0.661458,-1.359839 -0.363802,-0.536092 -0.661459,-1.302547 -0.661459,-1.703234 0,-0.424445 -0.177108,-0.796483 -0.424326,-0.89135 -0.237744,-0.09123 -0.359029,-0.332994 -0.275826,-0.549817 0.08168,-0.212844 -0.02503,-0.560523 -0.237131,-0.772621 -0.212098,-0.212098 -0.385633,-0.559993 -0.385633,-0.7731 0,-0.213106 -0.178594,-0.455999 -0.396875,-0.539761 -0.218281,-0.08376 -0.396875,-0.320739 -0.396875,-0.526616 0,-0.205876 -0.246961,-0.438901 -0.548802,-0.517835 -0.301841,-0.07893 -0.613384,-0.390476 -0.692317,-0.692317 -0.07893,-0.301841 -0.308223,-0.548802 -0.509532,-0.548802 -0.201309,0 -0.366016,-0.127006 -0.366016,-0.282237 0,-0.15523 -0.297656,-0.672484 -0.661458,-1.149453 -0.363802,-0.476969 -0.661459,-1.064338 -0.661459,-1.305263 0,-0.240926 -0.127566,-0.438047 -0.283482,-0.438047 -0.155915,0 -0.453571,-0.170089 -0.661458,-0.377976 -0.207887,-0.207887 -0.377976,-0.628342 -0.377976,-0.934346 0,-0.306003 -0.178594,-0.624902 -0.396875,-0.708664 -0.218281,-0.08376 -0.396875,-0.318151 -0.396875,-0.520863 0,-0.202712 -0.178594,-0.368567 -0.396875,-0.368567 -0.218281,0 -0.397021,-0.148829 -0.397198,-0.33073 -1.78e-4,-0.181901 -0.281921,-0.658151 -0.626097,-1.058333 -0.344175,-0.400182 -0.752725,-0.727604 -0.907889,-0.727604 -0.155163,0 -0.357693,-0.238125 -0.450066,-0.529167 -0.09237,-0.291041 -0.27899,-0.529166 -0.414705,-0.529166 -0.135714,0 -0.246753,-0.178594 -0.246753,-0.396875 0,-0.218282 -0.1228,-0.396875 -0.272888,-0.396875 -0.150088,0 -0.352316,-0.20836 -0.449396,-0.463021 -0.09708,-0.254662 -0.450531,-0.759461 -0.785446,-1.121776 -0.334915,-0.362315 -0.608937,-0.815826 -0.608937,-1.007802 0,-0.191976 -0.110491,-0.280761 -0.245534,-0.197299 -0.135044,0.08346 -0.321661,-0.08811 -0.414705,-0.38126 -0.09304,-0.293155 -0.28021,-0.533009 -0.415924,-0.533009 -0.135715,0 -0.246754,-0.173182 -0.246754,-0.384849 0,-0.211666 -0.297656,-0.682504 -0.661458,-1.046306 -0.363802,-0.363802 -0.661458,-0.763014 -0.661458,-0.887136 0,-0.124123 -0.519698,-0.591994 -1.154884,-1.039714 -0.635183,-0.447721 -1.319092,-1.185015 -1.519794,-1.638433 -0.200702,-0.453417 -0.454911,-0.824395 -0.564908,-0.824395 -0.109998,0 -0.199996,-0.297657 -0.199996,-0.661459 0,-0.411574 -0.14993,-0.661458 -0.396875,-0.661458 -0.218281,0 -0.396875,-0.140374 -0.396875,-0.311943 0,-0.171568 -0.431684,-0.707349 -0.959297,-1.190625 -0.527614,-0.483275 -1.052468,-0.878682 -1.166343,-0.878682 -0.113875,0 -0.753753,-0.53134 -1.421952,-1.180755 -0.668199,-0.649415 -1.214908,-1.356763 -1.214908,-1.571885 0,-0.215122 -0.105324,-0.456224 -0.234053,-0.535783 -0.12873,-0.07956 -0.315906,-0.690481 -0.415947,-1.357604 -0.100041,-0.667122 -0.411436,-1.442493 -0.691988,-1.723045 -0.280552,-0.280552 -0.553314,-0.480329 -0.606137,-0.443949 -0.05282,0.03638 -0.708474,-0.350573 -1.4570029,-0.859896 -0.748528,-0.509323 -1.428257,-1.13613 -1.510507,-1.392904 -0.08225,-0.256775 -0.260036,-0.398576 -0.39508,-0.315114 -0.139605,0.08628 -0.245534,-0.475108 -0.245534,-1.301245 0,-1.220621 0.08463,-1.479854 0.529166,-1.620945 0.291042,-0.09237 0.529167,-0.27899 0.529167,-0.414705 0,-0.135714 0.306161,-0.246753 0.680357,-0.246753 0.374196,0 0.8463139,0.148828 1.0491509,0.330729 0.202837,0.181901 0.546495,0.479557 0.763684,0.661458 0.21719,0.181901 0.548744,0.33469 0.736787,0.339532 0.188042,0.0048 0.609786,0.232285 0.937208,0.505431 0.327422,0.273146 0.595313,0.626373 0.595313,0.784948 0,0.158575 0.128221,0.288318 0.284936,0.288318 0.156714,0 0.610099,0.327422 1.007522,0.727605 0.397422,0.400182 0.801245,0.935963 0.897385,1.190625 0.09614,0.254661 0.424488,0.46302 0.729664,0.46302 0.305175,0 0.795614,-0.128845 1.089863,-0.286323 0.411813,-0.220395 0.495113,-0.445242 0.361774,-0.976511 -0.09528,-0.379603 -0.403383,-0.889801 -0.684685,-1.133774 -0.281303,-0.243972 -0.511459,-0.564755 -0.511459,-0.712851 0,-0.148095 -0.327422,-0.483388 -0.727604,-0.745095 -0.400183,-0.261707 -0.876433,-0.624083 -1.058334,-0.805281 -0.181901,-0.181198 -0.330729,-0.457017 -0.330729,-0.612932 0,-0.155916 -0.165855,-0.283483 -0.368567,-0.283483 -0.202713,0 -0.437101,-0.178593 -0.520863,-0.396875 -0.08376,-0.218281 -0.394157,-0.396875 -0.689766,-0.396875 -0.295609,0 -0.537471,-0.119062 -0.537471,-0.264583 0,-0.145521 -0.168671,-0.264583 -0.374826,-0.264583 -0.206154,0 -0.429397,-0.148828 -0.496094,-0.330729 -0.09701,-0.264584 -0.191382,-0.264584 -0.47184,0 -0.192815,0.181901 -0.424379,0.330729 -0.514586,0.330729 -0.09021,0 -0.564089,-0.357188 -1.0530699,-0.79375 -0.488982,-0.436563 -1.035986,-0.79375 -1.215565,-0.79375 -0.179578,0 -0.744293,-0.386953 -1.25492,-0.859896 C 6.5438871,46.794956 5.7299938,46.166645 5.2458629,45.871652 4.7617321,45.576659 3.8298437,45.298543 3.175,45.253616 2.5201563,45.208689 1.9446875,45.063093 1.8961806,44.930071 c -0.048507,-0.133023 -0.2568663,-0.24186 -0.4630209,-0.24186 -0.2061545,0 -0.6129513,-0.238125 -0.903993,-0.529166 C 0.1547605,43.784639 0,43.2771 0,42.423638 c 0,-0.677095 0.1080457,-1.139464 0.2463011,-1.054017 0.1354656,0.08372 0.3210861,0.03122 0.4124899,-0.116677 0.0914039,-0.147895 0.9925996,-0.268899 2.0026573,-0.268899 1.0479233,0 1.8364683,0.113607 1.8364683,0.264583 0,0.145521 0.1785938,0.264583 0.396875,0.264583 0.2182813,0 0.396875,0.178594 0.396875,0.396875 0,0.218282 0.1270066,0.396875 0.2822369,0.396875 0.1552302,0 0.6724846,0.297657 1.1494536,0.661459 0.486757,0.371267 1.221089,0.661458 1.67383,0.661458 0.443638,0 0.863815,0.148828 0.933727,0.330729 0.0737,0.191765 0.7240949,0.365776 1.5479049,0.41414 0.781436,0.04588 1.600177,0.244577 1.819424,0.44156 0.289019,0.259668 1.193994,0.349276 3.291137,0.325878 2.043289,-0.0228 2.923658,0.06118 2.998612,0.286044 0.05836,0.175074 0.264855,0.318316 0.458883,0.318316 0.194027,0 0.392465,0.0893 0.440972,0.198437 0.04851,0.109141 0.484796,0.406797 0.969532,0.661459 0.484736,0.254661 1.027832,0.46302 1.20688,0.46302 0.179049,0 0.60728,0.267891 0.951624,0.595313 0.344344,0.327422 0.991872,0.775025 1.438952,0.994673 0.44708,0.219648 0.812873,0.576836 0.812873,0.79375 0,0.264751 0.326138,0.421382 0.992187,0.476507 0.545704,0.04516 0.992188,0.193993 0.992188,0.330729 0,0.136736 0.208359,0.249345 0.463021,0.250242 0.254661,8.96e-4 0.804052,0.17949 1.220868,0.396875 0.416817,0.217384 0.871806,0.395245 1.011087,0.395245 0.139281,0 0.423327,0.170089 0.631214,0.377976 0.207887,0.207887 0.377977,0.446012 0.377977,0.529167 0,0.08315 0.228203,0.379393 0.507118,0.658308 0.278914,0.278915 0.576571,0.437665 0.661458,0.352778 0.08489,-0.08489 0.15434,-0.0067 0.15434,0.173798 0,0.180476 0.595313,0.917218 1.322917,1.637206 0.727604,0.719987 1.322916,1.240281 1.322916,1.156209 0,-0.08407 0.357188,0.05814 0.79375,0.31602 0.436563,0.257884 0.79375,0.549364 0.79375,0.647734 0,0.09837 0.289721,0.25157 0.643824,0.340444 0.354103,0.08887 0.719314,0.399438 0.81158,0.690141 0.09227,0.290704 0.278795,0.528552 0.414509,0.528552 0.135715,0 0.246754,0.178594 0.246754,0.396875 0,0.218281 0.119063,0.396875 0.264583,0.396875 0.145521,0 0.264584,0.152133 0.264584,0.338074 0,0.18594 0.208359,0.534749 0.463021,0.775131 0.254661,0.240382 0.582083,0.600763 0.727604,0.800847 0.145521,0.200084 0.392755,0.589285 0.54941,0.864892 0.156655,0.275607 0.600267,0.585465 0.985805,0.688574 0.600016,0.160469 0.778114,0.06266 1.236527,-0.679066 0.294552,-0.476595 0.535549,-1.065032 0.535549,-1.307637 0,-0.242605 0.20561,-0.764332 0.45691,-1.159395 0.2513,-0.395062 0.570343,-0.798071 0.708984,-0.895574 0.138641,-0.0975 0.280553,-0.371313 0.31536,-0.608466 0.03481,-0.237152 0.205504,-0.60255 0.379328,-0.811995 0.173824,-0.209445 0.413043,-0.320859 0.531598,-0.247588 0.118556,0.07327 0.289749,-0.100543 0.38043,-0.386254 0.09068,-0.285711 0.385073,-0.589363 0.654204,-0.674782 0.269132,-0.08542 0.564188,-0.453566 0.655681,-0.818105 0.09149,-0.364539 0.281924,-0.591371 0.423179,-0.50407 0.141254,0.0873 0.25756,-0.05666 0.258456,-0.319909 8.97e-4,-0.263249 0.179491,-0.819667 0.396875,-1.236483 0.285537,-0.547492 0.395245,-1.625494 0.395245,-3.883706 0,-2.425762 0.08889,-3.214745 0.396875,-3.522732 0.339234,-0.339234 0.396875,-1.89828 0.396875,-10.734524 0,-5.685707 0.103332,-10.337648 0.229626,-10.337648 0.126294,0 0.317223,-2.580684 0.424286,-5.734852 0.147231,-4.337564 0.284269,-5.82446 0.562441,-6.102632 0.202279,-0.20228 0.648533,-0.418691 0.991673,-0.480914 0.385582,-0.06992 0.793618,0.07441 1.06823,0.377853 0.244385,0.270043 0.497383,0.766434 0.562218,1.103091 0.06483,0.336657 0.209966,0.680386 0.322516,0.763841 0.112549,0.08346 0.243481,0.985175 0.290958,2.003821 0.04748,1.018646 0.196306,1.965193 0.330729,2.103437 0.134424,0.138245 0.244407,1.46796 0.244407,2.954923 0,1.486963 0.07201,2.891217 0.160015,3.120564 0.08801,0.229347 0.266603,0.351121 0.396875,0.270608 0.137059,-0.08471 0.236859,2.697441 0.236859,6.602956 0,5.209849 0.07752,6.797604 0.339848,6.960927 0.186916,0.116372 0.350627,0.419944 0.363802,0.674606 0.01317,0.254661 0.03884,0.641614 0.05703,0.859895 0.01819,0.218282 0.211666,0.396875 0.429947,0.396875 0.218282,0 0.396875,-0.119062 0.396875,-0.264583 0,-0.145521 0.178594,-0.264583 0.396875,-0.264583 0.218282,0 0.396875,-0.135175 0.396875,-0.300389 0,-0.165215 0.297657,-0.576248 0.661459,-0.913409 0.363802,-0.33716 0.661458,-0.797297 0.661458,-1.022527 0,-0.22523 0.178594,-0.409509 0.396875,-0.409509 0.218281,0 0.396875,-0.178593 0.396875,-0.396875 0,-0.218281 0.109602,-0.396875 0.243561,-0.396875 0.133958,0 0.321712,-0.355822 0.417231,-0.790715 0.09552,-0.434894 0.283573,-0.85864 0.417898,-0.941657 0.134325,-0.08302 0.244227,-0.605585 0.244227,-1.161262 0,-0.575285 0.170891,-1.152149 0.396875,-1.339699 0.243646,-0.202209 0.396875,-0.782583 0.396875,-1.50322 0,-0.715187 0.10338,-1.10995 0.264583,-1.010322 0.157458,0.09732 0.264583,-0.217738 0.264583,-0.778135 0,-0.660639 0.118439,-0.941656 0.396875,-0.941656 0.244386,0 0.396875,-0.248149 0.396875,-0.645844 0,-0.355213 -0.111375,-0.714677 -0.2475,-0.798806 -0.136125,-0.08413 0.04247,-0.442933 0.396875,-0.797339 0.465933,-0.465932 0.644375,-0.934676 0.644375,-1.692686 0,-0.576571 0.11009,-1.087999 0.244644,-1.136506 0.134554,-0.04851 0.294495,-0.837494 0.355424,-1.753306 0.06093,-0.915811 0.248496,-1.802827 0.416815,-1.971146 0.19347,-0.19347 0.306034,-1.345938 0.306034,-3.13329 0,-1.993335 0.116581,-3.050789 0.395245,-3.585104 0.27521,-0.527692 0.39574,-1.581468 0.396875,-3.4698275 9.8e-4,-1.630511 0.107139,-2.711979 0.266213,-2.711979 0.15856,0 0.264584,-1.0488979 0.264584,-2.6175263 0,-2.082614 0.0811,-2.6486485 0.396875,-2.769821 0.218281,-0.083762 0.396875,-0.40134427 0.396875,-0.70573747 0,-0.4754172 0.136102,-0.5418651 0.965391,-0.4713247 0.530965,0.045165 1.055234,0.2607112 1.165041,0.4789925 0.109807,0.2182812 0.330094,0.87312497 0.489527,1.45520827 0.16383,0.5981413 0.318765,3.9100663 0.356313,7.6166477 0.04876,4.8136615 0.152286,6.6113135 0.389155,6.7575405 0.187335,0.115647 0.369709,1.009801 0.434731,2.131416 0.06161,1.062706 0.243806,2.063985 0.404886,2.225065 0.16108,0.16108 0.292872,0.738284 0.292872,1.282675 0,0.544391 0.11073,1.058236 0.246066,1.141878 0.135336,0.08364 0.322489,0.83481 0.415895,1.669261 0.09341,0.834451 0.326541,1.874371 0.518079,2.310934 0.191537,0.436562 0.480635,1.218922 0.642438,1.738576 0.161804,0.519655 0.294189,1.197238 0.294189,1.50574 0,0.308502 0.10327,0.624737 0.229489,0.702744 0.126219,0.07801 0.291847,0.695073 0.368063,1.371256 0.07621,0.676183 0.253428,1.303995 0.393805,1.395137 0.140377,0.09114 0.339758,0.625132 0.443068,1.186643 0.10331,0.561511 0.477672,1.289539 0.831914,1.61784 0.354243,0.328301 0.644078,0.791617 0.644078,1.029591 0,0.237975 0.151518,0.432681 0.336707,0.432681 0.185189,0 0.561126,0.416719 0.835414,0.926042 0.274289,0.509323 0.59902,0.926041 0.721626,0.926041 0.122605,0 0.222919,0.178594 0.222919,0.396875 0,0.218282 0.168672,0.396875 0.374827,0.396875 0.206154,0 0.427979,0.148829 0.492943,0.33073 0.06497,0.181901 0.223715,0.231692 0.352778,0.110646 0.129063,-0.121045 0.274903,-2.789167 0.324089,-5.92916 0.07006,-4.472423 0.170353,-5.790003 0.463021,-6.082671 0.205476,-0.205476 0.373592,-0.77478 0.373592,-1.26512 0,-0.49034 0.119063,-0.965113 0.264583,-1.055049 0.145521,-0.08994 0.264584,-0.55337 0.264584,-1.029852 0,-0.476481 0.0893,-0.955021 0.198437,-1.063421 0.109141,-0.108401 0.352498,-1.050979 0.540793,-2.094619 0.188296,-1.043639 0.457187,-3.08815 0.597535,-4.543358 0.140349,-1.455209 0.399405,-3.122084 0.57568,-3.704167 0.176276,-0.582083 0.464427,-1.207162 0.640337,-1.389063 0.17591,-0.181901 0.497197,-0.330729 0.713971,-0.330729 0.216774,0 0.582466,0.07227 0.812649,0.160599 0.230183,0.08833 0.418514,0.330192 0.418514,0.537471 0,0.207279 0.182365,0.446851 0.405254,0.532382 0.350951,0.134672 0.399381,1.06263 0.361428,6.925193 -0.03137,4.845933 0.04143,6.798102 0.256204,6.869692 0.214524,0.07151 0.300031,2.303075 0.300031,7.830253 0,5.444095 0.08941,7.819654 0.302327,8.03257 0.197288,0.197289 0.312194,1.689826 0.330729,4.295912 0.022,3.094089 0.11096,4.044607 0.394942,4.220108 0.243065,0.150215 0.308214,0.458911 0.193397,0.91638 -0.101745,0.405384 -0.06196,0.689857 0.09648,0.689857 0.148293,0 0.269624,0.297656 0.269624,0.661458 0,0.363802 0.226371,0.887829 0.503047,1.164505 0.276676,0.276676 0.752926,0.582356 1.058333,0.679288 0.305408,0.09693 0.555287,0.294307 0.555287,0.43861 0,0.144303 0.111745,0.193306 0.248322,0.108897 0.136577,-0.08441 0.344936,0.0068 0.46302,0.202775 0.118085,0.195936 0.406129,0.426332 0.640099,0.511991 0.23397,0.08566 0.501861,0.538048 0.595313,1.005308 0.09345,0.46726 0.169912,1.184841 0.169912,1.594626 0,0.409784 0.12718,0.823663 0.282621,0.919731 0.155442,0.09607 0.214224,0.352909 0.130628,0.570756 -0.08453,0.220287 0.155253,0.761227 0.540247,1.218768 0.380732,0.452474 0.887498,0.868177 1.126138,0.923785 0.23865,0.05561 0.81038,0.161766 1.27052,0.235907 0.68804,0.110862 0.91636,0.01308 1.28571,-0.550613 0.24701,-0.376979 0.54244,-0.627729 0.65652,-0.557224 0.11408,0.0705 0.28192,-0.168642 0.37297,-0.531439 0.0911,-0.362796 0.28235,-0.659629 0.4251,-0.659629 0.14275,0 0.25955,-0.127567 0.25955,-0.283482 0,-0.155916 0.17008,-0.453572 0.37797,-0.661459 0.20789,-0.207887 0.4378,-0.377976 0.51092,-0.377976 0.0731,0 0.82577,-0.653156 1.67255,-1.451458 0.84678,-0.798302 1.68842,-1.453146 1.87033,-1.455208 0.1819,-0.0021 0.33073,-0.113261 0.33073,-0.247106 0,-0.133845 0.81063,-0.832959 1.8014,-1.553585 0.99077,-0.720626 2.05624,-1.391113 2.36771,-1.48997 0.31148,-0.09886 0.63987,-0.411499 0.72978,-0.694759 0.0899,-0.28326 0.44189,-0.584899 0.78219,-0.67031 0.3403,-0.08541 0.8889,-0.442875 1.21911,-0.794365 0.33021,-0.35149 0.80911,-0.639072 1.06422,-0.639072 0.25512,0 0.69559,-0.294621 0.97884,-0.654713 0.3191,-0.405666 0.82963,-0.678687 1.34212,-0.717737 0.45492,-0.03466 0.82712,-0.202727 0.82712,-0.373474 0,-0.170747 0.43112,-0.515025 0.95803,-0.765063 0.52692,-0.250037 1.01351,-0.666758 1.08131,-0.926046 0.0811,-0.310059 0.50034,-0.539524 1.22479,-0.670351 0.60582,-0.109404 1.36939,-0.173978 1.69681,-0.143498 0.32742,0.03048 0.59531,-0.05728 0.59531,-0.195027 0,-0.137745 0.35719,-0.321883 0.79375,-0.409195 0.44631,-0.08926 0.79375,-0.327566 0.79375,-0.54441 0,-0.212113 0.20836,-0.442818 0.46303,-0.512679 0.25466,-0.06986 0.90122,-0.200787 1.43681,-0.29095 l 0.97379,-0.163932 0.0845,0.733879 c 0.0529,0.458988 0.26582,0.76828 0.56849,0.825718 0.26617,0.05051 0.77219,0.01949 1.12448,-0.06892 0.35229,-0.08842 0.64541,-0.307323 0.65138,-0.486452 0.006,-0.179128 0.58284,-0.593579 1.28196,-0.921 0.69911,-0.327422 1.69775,-0.595313 2.21921,-0.595313 0.52146,0 1.12669,-0.178594 1.34498,-0.396875 0.21828,-0.218281 0.74982,-0.396875 1.18121,-0.396875 0.45312,0 0.84866,0.167599 0.93664,0.396875 0.0838,0.218281 0.44666,0.396875 0.80644,0.396875 0.35978,0 0.72156,0.109071 0.80395,0.242381 0.0824,0.133309 0.0441,0.520341 -0.085,0.860072 -0.12916,0.33973 -0.69556,0.868695 -1.25866,1.175477 -0.5631,0.306782 -1.43845,0.782953 -1.94522,1.058157 -0.50678,0.275204 -1.36985,0.946856 -1.91794,1.492559 -0.54809,0.545703 -1.11573,0.992187 -1.26141,0.992187 -0.14568,0 -0.26488,0.113668 -0.26488,0.252595 0,0.138926 -0.41803,0.331017 -0.92896,0.426869 -0.51093,0.09585 -0.99421,0.27984 -1.07395,0.408864 -0.0797,0.129024 -0.46538,0.236215 -0.85697,0.238202 -0.3916,0.002 -0.97988,0.0754 -1.3073,0.16315 -0.34152,0.09152 -0.59532,0.36532 -0.59532,0.642231 0,0.265481 -0.11906,0.556278 -0.26458,0.646214 -0.14552,0.08994 -0.26458,0.573214 -0.26458,1.073949 0,0.500734 0.0446,0.910426 0.099,0.910426 0.0545,0 0.60522,-0.178593 1.22389,-0.396875 0.61868,-0.218281 1.4497,-0.396875 1.84672,-0.396875 0.40247,0 1.03635,0.291471 1.43268,0.658781 0.57907,0.536665 0.6598,0.754141 0.43551,1.173231 -0.15143,0.282947 -0.27532,0.765428 -0.27532,1.072178 0,0.30675 -0.12091,0.701531 -0.26869,0.87729 -0.14778,0.175759 -0.56626,0.655015 -0.92995,1.065013 -0.36369,0.409998 -0.83803,1.168521 -1.05408,1.685607 -0.21605,0.517086 -0.75008,1.305564 -1.18672,1.752173 -0.43664,0.446609 -0.7939,1.00742 -0.7939,1.246246 0,0.238826 -0.28762,0.588163 -0.63917,0.776304 -0.35154,0.188141 -0.69743,0.564847 -0.76863,0.837124 -0.0712,0.272277 -0.34002,0.575852 -0.59738,0.67461 -0.25737,0.09876 -0.68539,0.397016 -0.95117,0.662794 -0.26577,0.265778 -0.48323,0.54796 -0.48323,0.627072 0,0.07911 -0.29765,0.464848 -0.66146,0.857192 -0.3638,0.392344 -0.66146,0.850659 -0.66146,1.018478 0,0.167819 -0.17859,0.373659 -0.39687,0.457421 -0.21828,0.08376 -0.39688,0.317835 -0.39688,0.520162 0,0.202326 -0.47565,0.77161 -1.057,1.265074 -0.58135,0.493465 -1.0576,1.077309 -1.05833,1.297431 -7.3e-4,0.220122 -0.32358,0.636841 -0.71745,0.926042 -0.39386,0.2892 -0.8709,0.704413 -1.06007,0.922694 -0.18918,0.218281 -0.93849,1.023524 -1.66514,1.789428 -0.78004,0.822189 -1.32117,1.63606 -1.32117,1.987079 0,0.326989 -0.28117,0.897756 -0.62483,1.268372 -0.34365,0.370616 -0.76456,0.934946 -0.93535,1.254067 -0.17079,0.319121 -0.47629,0.580221 -0.67889,0.580221 -0.20259,0 -0.58737,0.26789 -0.85504,0.595312 -0.26768,0.327422 -0.93116,0.822421 -1.47441,1.099997 -0.56731,0.289869 -0.98773,0.700139 -0.98773,0.96388 0,0.252558 -0.1786,0.527728 -0.39688,0.611491 -0.21828,0.08376 -0.39687,0.402661 -0.39687,0.708664 0,0.306004 -0.1786,0.734964 -0.39688,0.953245 -0.21828,0.218281 -0.39687,0.625486 -0.39687,0.904901 0,0.279414 -0.23813,0.656737 -0.52917,0.838495 -0.29104,0.181759 -0.52916,0.480424 -0.52916,0.663701 0,0.183277 -0.1786,0.33323 -0.39688,0.33323 -0.21828,0 -0.39687,0.185621 -0.39687,0.41249 0,0.22687 -0.11907,0.338905 -0.26459,0.248968 -0.14552,-0.08994 -0.26492,-0.0077 -0.26534,0.182823 -4.2e-4,0.190489 -0.35727,0.584469 -0.79299,0.875511 -0.43573,0.291041 -0.79257,0.724788 -0.79299,0.96388 -4.2e-4,0.239092 -0.17936,0.503246 -0.39764,0.587008 -0.21828,0.08376 -0.39687,0.334626 -0.39687,0.557475 0,0.222848 -0.10289,0.405178 -0.22864,0.405178 -0.12575,0 -0.43906,0.565547 -0.69625,1.256771 -0.25718,0.691224 -0.57102,1.369881 -0.6974,1.508125 -0.12639,0.138245 -0.22979,0.469401 -0.22979,0.735901 0,0.26651 -0.1786,0.55309 -0.39688,0.63685 -0.21828,0.0838 -0.39687,0.31815 -0.39687,0.52087 0,0.20271 -0.20836,0.59462 -0.46303,0.87091 -0.25466,0.2763 -0.73091,0.79909 -1.05833,1.161765 -0.32742,0.36269 -0.59531,0.78737 -0.59531,0.94374 0,0.15637 -0.35318,0.64561 -0.78483,1.08719 -0.431661,0.44158 -0.907911,0.80287 -1.058336,0.80287 -0.150426,0 -0.273501,0.35719 -0.273501,0.79375 0,0.43656 -0.119063,0.79375 -0.264583,0.79375 -0.145521,0 -0.264584,0.21537 -0.264584,0.4786 0,0.26322 -0.174807,0.70971 -0.38846,0.99218 -0.213653,0.28248 -0.392247,0.70183 -0.396875,0.93191 -0.0046,0.23007 -0.304098,0.57655 -0.665489,0.76996 -0.361391,0.19341 -0.72038,0.55112 -0.797753,0.7949 -0.07737,0.24378 -0.555504,0.90933 -1.062511,1.47899 -0.507007,0.56966 -0.921924,1.24785 -0.922038,1.50708 -1.14e-4,0.25922 -0.178801,0.53985 -0.397082,0.62362 -0.218281,0.0838 -0.396875,0.42729 -0.396875,0.76339 0,0.33611 -0.09338,0.65079 -0.207505,0.6993 -0.114127,0.0485 -0.590377,0.8426 -1.058333,1.76466 -0.467956,0.92205 -0.850829,1.79028 -0.850829,1.92939 0,0.13912 -0.148828,0.43578 -0.330729,0.65925 -0.181901,0.22347 -0.658151,0.77188 -1.058333,1.2187 -0.400182,0.44681 -0.727604,1.02011 -0.727604,1.274 0,0.25389 -0.180381,0.53084 -0.400846,0.61544 -0.220465,0.0846 -0.515175,0.45453 -0.65491,0.82206 -0.139735,0.36753 -0.442631,0.66824 -0.673102,0.66824 -0.230471,0 -0.344112,0.12123 -0.252535,0.2694 0.09158,0.14818 -0.08859,0.68216 -0.400362,1.18662 -0.351883,0.56936 -0.502688,1.11941 -0.397642,1.45038 0.09592,0.30221 0.04951,0.53318 -0.107126,0.53318 -0.151992,0 -0.264645,0.44648 -0.250339,0.99219 0.01431,0.5457 -0.06339,1.49644 -0.172667,2.11274 -0.109273,0.61631 -0.361831,1.25597 -0.561241,1.42146 -0.19941,0.1655 -0.362564,0.57695 -0.362564,0.91435 0,0.3374 -0.119062,0.68703 -0.264583,0.77697 -0.145521,0.0899 -0.26837,0.42438 -0.272998,0.74322 -0.0046,0.31883 -0.183222,0.81081 -0.396875,1.09328 -0.213653,0.28248 -0.38846,0.71681 -0.38846,0.96519 0,0.24837 -0.296222,0.96975 -0.658271,1.60307 -0.36205,0.63332 -0.659706,1.47891 -0.661459,1.87909 -0.0018,0.40018 -0.112789,0.72761 -0.246748,0.72761 -0.133958,0 -0.328176,0.38525 -0.431595,0.85611 -0.103419,0.47087 -0.33938,0.97688 -0.524357,1.12448 -0.184977,0.1476 -0.410953,0.74461 -0.502168,1.3267 -0.09122,0.58208 -0.237281,1.47505 -0.324589,1.98437 -0.08731,0.50933 -0.283254,1.00547 -0.435433,1.10255 -0.152179,0.0971 -0.330445,1.20069 -0.396146,2.45245 -0.0657,1.25177 -0.223469,2.34023 -0.350595,2.4188 -0.127127,0.0786 -0.231139,0.76685 -0.231139,1.52953 0,0.76267 -0.106115,1.49978 -0.235811,1.63803 -0.129696,0.13824 -0.286805,1.00495 -0.349133,1.92602 -0.06233,0.92107 -0.257329,1.76367 -0.433338,1.87245 -0.176009,0.10878 -0.309304,0.54581 -0.29621,0.97117 0.01309,0.42536 -0.05982,1.5209 -0.16203,2.43454 -0.10221,0.91364 -0.288056,1.72434 -0.412991,1.80155 -0.124934,0.0772 -0.227154,0.70487 -0.227154,1.39478 0,0.68991 -0.135255,1.38964 -0.300566,1.55495 -0.165312,0.16531 -0.360204,1.46904 -0.433095,2.89719 -0.07936,1.55489 -0.277219,2.80599 -0.493184,3.11851 -0.270314,0.39116 -0.360655,1.66306 -0.360655,5.07761 0,2.75175 -0.10477,4.62048 -0.264583,4.71925 -0.145521,0.0899 -0.264583,0.39462 -0.264583,0.67707 0,0.3892 -0.176191,0.50821 -0.727605,0.4915 -0.400182,-0.0121 -0.935963,-0.25025 -1.190625,-0.52916 z m 1.6079,-75.63356 c 0.06337,-0.66378 0.150838,-0.80488 0.326678,-0.527 0.160147,0.25308 0.241481,-0.12726 0.244183,-1.14187 0.0022,-0.83675 0.117202,-1.52136 0.255497,-1.52136 0.138295,0 0.335396,-0.74203 0.438003,-1.64895 0.122483,-1.08261 0.248252,-1.47307 0.366188,-1.13686 0.147113,0.41939 0.211511,0.35268 0.355747,-0.3685 0.09686,-0.484315 0.176117,-1.163355 0.176117,-1.508965 0,-0.34561 0.119062,-0.62838 0.264583,-0.62838 0.145521,0 0.264584,-0.23813 0.264584,-0.52917 0,-0.29104 0.113667,-0.52917 0.252594,-0.52917 0.138927,0 0.330771,-0.416716 0.426321,-0.926039 0.09555,-0.509323 0.279538,-0.926042 0.408864,-0.926042 0.129325,0 0.235137,-0.164015 0.235137,-0.364478 0,-0.200463 0.178594,-0.512698 0.396875,-0.693855 0.218281,-0.181157 0.396875,-0.612455 0.396875,-0.958438 0,-0.345984 0.119063,-0.629062 0.264584,-0.629062 0.14552,0 0.264583,-0.178594 0.264583,-0.396875 0,-0.218281 0.178594,-0.396875 0.396875,-0.396875 0.218281,0 0.396875,-0.225386 0.396875,-0.500859 0,-0.275473 0.178594,-0.569392 0.396875,-0.653154 0.218281,-0.08376 0.396875,-0.367697 0.396875,-0.630965 0,-0.263268 -0.239486,-0.683724 -0.532191,-0.934346 -0.292705,-0.250622 -0.649893,-0.455676 -0.79375,-0.455676 -0.143858,0 -0.261559,-0.119062 -0.261559,-0.264583 0,-0.145521 -0.158475,-0.264583 -0.352166,-0.264583 -0.193691,0 -0.511466,-0.297657 -0.706167,-0.661459 -0.194701,-0.363802 -0.512477,-0.661458 -0.706168,-0.661458 -0.193691,0 -0.352166,-0.178594 -0.352166,-0.396875 0,-0.218281 -0.18562,-0.396875 -0.41249,-0.396875 -0.226869,0 -0.344203,-0.110491 -0.260741,-0.245534 0.08346,-0.135044 -0.106694,-0.327561 -0.422568,-0.427816 -0.315874,-0.100254 -0.837272,-0.466014 -1.158661,-0.812799 -0.404975,-0.436975 -0.873697,-0.630518 -1.526989,-0.630518 -0.69035,0 -1.0819,0.177036 -1.462947,0.661459 -0.286167,0.363802 -0.651996,0.661458 -0.812953,0.661458 -0.160958,0 -0.292651,0.152309 -0.292651,0.338466 0,0.186156 -0.260978,0.513578 -0.579952,0.727604 -0.318974,0.214026 -0.84754,0.644401 -1.17459,0.956389 -0.32705,0.311988 -0.661384,0.500503 -0.742964,0.418923 -0.08158,-0.08158 -0.148327,-0.0094 -0.148327,0.160354 0,0.169774 -0.245152,0.308681 -0.544782,0.308681 -0.299629,0 -0.479046,0.106361 -0.398703,0.236359 0.08034,0.129997 -0.150755,0.31086 -0.513552,0.401916 -0.562849,0.141266 -0.65963,0.317804 -0.65963,1.203234 0,0.570722 0.119063,1.111262 0.264584,1.201199 0.145521,0.08994 0.264583,0.376166 0.264583,0.636066 0,0.259899 0.238125,0.688045 0.529167,0.951434 0.291041,0.263389 0.529312,0.609264 0.52949,0.768611 1.77e-4,0.159347 0.297834,0.635663 0.661458,1.058479 0.363624,0.422817 0.661135,0.933811 0.661135,1.135543 0,0.201731 0.236643,0.620792 0.525874,0.931244 0.289231,0.310455 0.600138,0.960315 0.690904,1.444145 0.09077,0.48383 0.270842,0.87969 0.400168,0.87969 0.129325,0 0.235137,0.36092 0.235137,0.80205 0,0.46886 0.164872,0.865315 0.396875,0.954345 0.218282,0.0838 0.396875,0.37065 0.396875,0.63754 0,0.26688 0.119063,0.55883 0.264584,0.64876 0.14552,0.0899 0.265316,0.42439 0.266213,0.74322 8.97e-4,0.31884 0.17949,0.92073 0.396875,1.33755 0.217385,0.41682 0.395245,1.40781 0.395245,2.20221 0,1.23261 0.06788,1.43151 0.463021,1.35665 0.311433,-0.059 0.491355,-0.38448 0.549566,-0.99419 z M 69.849999,83.185086 c 0,-0.07276 -0.05953,-0.132291 -0.132292,-0.132291 -0.07276,0 -0.132291,0.05953 -0.132291,0.132291 0,0.07276 0.05953,0.132292 0.132291,0.132292 0.07276,0 0.132292,-0.05953 0.132292,-0.132292 z m 14.768923,-3.505729 c 0.0465,-0.327422 0.195329,-0.595312 0.330729,-0.595312 0.135399,0 0.246181,-0.225387 0.246181,-0.50086 0,-0.275472 0.178594,-0.569392 0.396875,-0.653154 0.218281,-0.08376 0.396875,-0.394157 0.396875,-0.689766 0,-0.295609 0.105176,-0.53747 0.233725,-0.53747 0.128548,0 0.303685,-0.20836 0.389193,-0.463021 0.08551,-0.254662 0.307754,-0.701146 0.49388,-0.992188 0.186126,-0.291041 0.487239,-0.62438 0.66914,-0.740751 0.181901,-0.116372 0.330729,-0.503325 0.330729,-0.859896 0,-0.356571 0.119062,-0.648311 0.264583,-0.648311 0.145521,0 0.264583,-0.457139 0.264583,-1.015864 0,-0.831835 -0.122081,-1.071488 -0.673907,-1.322916 -0.37065,-0.16888 -0.826781,-0.307053 -1.013625,-0.307053 -0.186843,0 -0.499017,-0.297657 -0.693718,-0.661459 -0.194701,-0.363802 -0.512476,-0.661458 -0.706167,-0.661458 -0.193691,0 -0.352166,-0.178594 -0.352166,-0.396875 0,-0.218281 -0.127567,-0.396875 -0.283482,-0.396875 -0.155915,0 -0.453571,-0.170089 -0.661458,-0.377976 -0.207887,-0.207887 -0.377977,-0.491663 -0.377977,-0.630614 0,-0.138951 -0.286305,-0.307369 -0.636234,-0.374262 -0.349929,-0.06689 -0.826179,-0.01533 -1.058333,0.114595 -0.232155,0.12992 -0.422099,0.4614 -0.422099,0.736623 0,0.275222 -0.121005,0.575189 -0.268899,0.666593 -0.147895,0.0914 -0.200399,0.277024 -0.116677,0.41249 0.08372,0.135465 0.05005,0.246301 -0.07482,0.246301 -0.124876,0 -0.373627,0.405362 -0.552782,0.900804 -0.179154,0.495442 -0.500728,0.967955 -0.71461,1.050029 -0.223771,0.08587 -0.388875,0.489752 -0.388875,0.95128 0,0.485888 0.136979,0.802054 0.347492,0.802054 0.19112,0 0.510999,0.416718 0.710841,0.926041 0.199843,0.509323 0.460191,0.926042 0.578551,0.926042 0.11836,0 0.215199,0.172677 0.215199,0.383728 0,0.21105 0.20836,0.505086 0.463021,0.653412 0.256966,0.149669 0.315839,0.273266 0.132292,0.277731 -0.198948,0.0048 -0.330729,0.370811 -0.330729,0.918472 0,0.500735 0.119062,0.984012 0.264583,1.073949 0.145521,0.08994 0.264583,0.505177 0.264583,0.922757 0,0.41758 0.193563,0.952799 0.430139,1.189375 0.237948,0.237949 0.740376,0.394165 1.124479,0.349628 0.487545,-0.05653 0.719522,-0.257812 0.778889,-0.675823 z M 56.78893,78.938121 c 0.344109,-0.3713 0.625652,-0.788018 0.625652,-0.926042 0,-0.138023 0.178594,-0.250951 0.396875,-0.250951 0.218282,0 0.396875,-0.15667 0.396875,-0.348154 0,-0.191485 0.506016,-0.63797 1.12448,-0.992188 0.618463,-0.354218 1.362604,-0.708273 1.653645,-0.786788 0.331898,-0.08954 0.560431,-0.41066 0.613032,-0.8614 0.05439,-0.466089 -0.06184,-0.774557 -0.330729,-0.87774 -0.228027,-0.0875 -0.422963,-0.354716 -0.433191,-0.593808 -0.01452,-0.339445 -0.06843,-0.318745 -0.245987,0.09445 l -0.22739,0.529167 -0.0186,-0.727605 c -0.01023,-0.400182 -0.146163,-0.727604 -0.302078,-0.727604 -0.155915,0 -0.423806,-0.153856 -0.595313,-0.341903 -0.171506,-0.188046 -0.440631,-0.574999 -0.598055,-0.859896 -0.157424,-0.284896 -0.544377,-0.635522 -0.859896,-0.77917 -0.315519,-0.143648 -0.573671,-0.401617 -0.573671,-0.573264 0,-0.171647 -0.0893,-0.351774 -0.198437,-0.400281 -0.109141,-0.04851 -0.406797,-0.484796 -0.661458,-0.969532 -0.254662,-0.484735 -0.463021,-1.050282 -0.463021,-1.25677 0,-0.206489 -0.178594,-0.375434 -0.396875,-0.375434 -0.218281,0 -0.396875,-0.119062 -0.396875,-0.264583 0,-0.145521 -0.117702,-0.264583 -0.261559,-0.264583 -0.143857,0 -0.501045,0.205054 -0.79375,0.455676 -0.292705,0.250622 -0.532191,0.726872 -0.532191,1.058333 0,0.331462 -0.106155,0.602657 -0.235901,0.602657 -0.129745,0 -0.310607,0.297657 -0.401915,0.661459 -0.122573,0.488367 -0.341873,0.661458 -0.838048,0.661458 -0.380647,0 -0.601132,0.11472 -0.508511,0.264583 0.09712,0.157139 -0.212534,0.264584 -0.76252,0.264584 -0.509323,0 -1.01368,0.141801 -1.120793,0.315114 -0.107113,0.173313 -0.05461,0.361828 0.116677,0.418923 0.171285,0.0571 0.311428,0.395281 0.311428,0.751523 0,0.356243 0.178593,0.716247 0.396875,0.800009 0.218281,0.08376 0.396875,0.437213 0.396875,0.785446 0,0.386412 0.154662,0.633151 0.396875,0.633151 0.218281,0 0.396875,0.111127 0.396875,0.246948 0,0.135821 0.595312,0.858132 1.322916,1.605136 0.727604,0.747003 1.322917,1.588377 1.322917,1.869719 0,0.281342 0.116794,0.511531 0.259542,0.511531 0.142749,0 0.33425,0.297656 0.425558,0.661458 0.09131,0.363802 0.347815,0.661458 0.570014,0.661458 0.222199,0 0.685541,-0.30379 1.02965,-0.67509 z m 56.45274,0.01363 c 0,-0.07276 -0.0595,-0.132292 -0.1323,-0.132292 -0.0728,0 -0.13229,0.05953 -0.13229,0.132292 0,0.07276 0.0595,0.132292 0.13229,0.132292 0.0728,0 0.1323,-0.05953 0.1323,-0.132292 z m 6.87916,-8.466667 c 0,-0.07276 -0.0595,-0.132291 -0.13229,-0.132291 -0.0728,0 -0.13229,0.05953 -0.13229,0.132291 0,0.07276 0.0595,0.132292 0.13229,0.132292 0.0728,0 0.13229,-0.05953 0.13229,-0.132292 z M 70.066838,63.272488 c 0.0465,-0.325936 0.19533,-0.59261 0.33073,-0.59261 0.135399,0 0.246181,-0.297656 0.246181,-0.661458 0,-0.363802 0.10418,-0.661459 0.23151,-0.661459 0.127331,0 0.304526,-0.365078 0.393768,-0.811285 0.09016,-0.450827 0.281193,-0.737779 0.429948,-0.645844 0.14723,0.09099 0.269592,-0.04994 0.271917,-0.313193 0.0023,-0.26325 0.359512,-0.881723 0.79375,-1.374385 0.434238,-0.492662 0.789524,-1.005705 0.789524,-1.140094 0,-0.13439 0.119062,-0.17076 0.264583,-0.08082 0.160445,0.09916 0.264583,-0.276535 0.264583,-0.954524 0,-0.614925 -0.06945,-1.048592 -0.15434,-0.963705 -0.08489,0.08489 -0.382543,-0.07386 -0.661458,-0.352778 -0.278915,-0.278915 -0.507118,-0.575153 -0.507118,-0.658308 0,-0.08316 -0.178594,-0.329784 -0.396875,-0.548066 -0.218282,-0.218281 -0.396875,-0.633522 -0.396875,-0.922757 0,-0.289236 -0.115572,-0.454456 -0.256827,-0.367156 -0.141255,0.0873 -0.332549,-0.142975 -0.425099,-0.511723 -0.09255,-0.368748 -0.274634,-0.604715 -0.404632,-0.524373 -0.129997,0.08034 -0.236359,-0.09907 -0.236359,-0.398703 0,-0.29963 -0.116794,-0.544782 -0.259543,-0.544782 -0.142748,0 -0.334249,-0.297656 -0.425557,-0.661458 -0.119191,-0.474894 -0.344491,-0.661458 -0.798791,-0.661458 -0.348027,0 -0.632776,0.127567 -0.632776,0.283482 0,0.155915 -0.170089,0.453571 -0.377976,0.661458 -0.207887,0.207887 -0.565074,0.377976 -0.79375,0.377976 -0.228675,0 -0.415774,0.156144 -0.415774,0.346985 0,0.190842 -0.223559,0.586948 -0.496798,0.880236 -0.27324,0.293288 -0.578919,0.791988 -0.679288,1.108223 -0.100369,0.316235 -0.372904,0.574973 -0.605632,0.574973 -0.232729,0 -0.347971,0.07517 -0.256095,0.167048 0.09188,0.09188 -0.0073,0.416024 -0.220486,0.72033 -0.213144,0.304305 -0.387534,0.963899 -0.387534,1.465764 0,0.501866 0.197047,1.130217 0.437882,1.396337 0.240835,0.26612 0.598023,0.483854 0.79375,0.483854 0.195727,0 0.355868,0.178594 0.355868,0.396875 0,0.218282 0.238125,0.635 0.529167,0.926042 0.291041,0.291042 0.529166,0.740831 0.529166,0.999532 0,0.258701 0.20836,0.667041 0.463021,0.907423 0.254662,0.240382 0.582083,0.594264 0.727604,0.786405 0.145521,0.192142 0.277898,0.748873 0.29417,1.23718 0.01627,0.488308 0.194866,0.994174 0.396875,1.124148 0.202009,0.129973 0.545882,0.205483 0.764164,0.167798 0.218281,-0.03768 0.434921,-0.335191 0.481422,-0.661126 z M 137.05416,45.878836 c 0,-0.07276 -0.0595,-0.132291 -0.13229,-0.132291 -0.0728,0 -0.13229,0.05953 -0.13229,0.132291 0,0.07276 0.0595,0.132292 0.13229,0.132292 0.0728,0 0.13229,-0.05953 0.13229,-0.132292 z"
     id="path1" /></svg>
