<?xml version="1.0" encoding="UTF-8" standalone="no"?>
<!DOCTYPE svg PUBLIC "-//W3C//DTD SVG 1.1//EN" "http://www.w3.org/Graphics/SVG/1.1/DTD/svg11.dtd">
<svg width="100%" height="100%" viewBox="0 0 800 767" version="1.1" xmlns="http://www.w3.org/2000/svg" xmlns:xlink="http://www.w3.org/1999/xlink" xml:space="preserve" xmlns:serif="http://www.serif.com/" style="fill-rule:evenodd;clip-rule:evenodd;stroke-linejoin:round;stroke-miterlimit:2;">
    <g transform="matrix(1.203008,0,0,1.203008,-162.406015,-151.578947)">
        <path d="M257.174,715.957C182.619,654.961 135,562.248 135,458.5C135,274.988 283.988,126 467.5,126C651.012,126 800,274.988 800,458.5C800,594.677 717.959,711.843 600.65,763.226C604.209,759.29 608.701,754.195 614.404,747.634C627.529,732.534 668.183,714.421 679.074,682.807C684.187,677.308 690.635,668.523 698.486,654.546C764.02,537.884 747.827,454.808 747.827,454.808C747.827,454.808 728.136,596.608 675.086,639.56C674.235,637.76 673.295,635.931 672.263,634.071L673.704,632.924C662.011,634.679 659.765,631 654.282,639.808C649.433,647.596 650.182,647.76 646.388,656.919C647.138,641.318 647.496,641.516 651.588,626.26C625.538,651.235 651.776,671.369 622.896,683.024C603.254,690.951 601.83,689.714 601.688,687.977C597.576,637.791 623.831,616.819 589.384,617.243C581.019,617.346 562.186,629.411 561.524,636.099C558.821,663.403 554.49,662.155 546.052,688.161C545.498,687.214 536.624,672.055 533.732,682.135C531.031,691.546 520.823,703.214 519.78,705.202C517.252,710.027 520.069,715.491 511.6,721.584L511.666,726.14C510.365,726.521 492.267,736.523 483.476,734.732C474.23,732.849 474.386,733.436 465.045,735.374C453.361,737.8 454.54,727.928 442.951,730.17C439.511,730.835 436.198,745.51 435.878,746.93C424.807,747.629 424.092,746.598 422.706,749.009C418.737,755.917 419.273,755.922 415.07,762.798C414.312,762.736 387.846,753.184 372.888,752.395C365.073,751.983 343.737,754.452 336.924,741.606C324.581,739.685 325.531,737.214 320.697,725.887C312.273,706.147 303.739,715.172 297.827,707.793C295.32,704.664 292.003,682.849 291.668,680.648C250.204,679.683 253.354,665.997 251.262,652.139L251.265,654.358C248.556,650.302 218.138,604.761 217.779,603.41C212.76,584.523 220.046,563.061 200.946,558.663C200.211,570.336 209.983,617.939 210.09,622.79C210.293,631.959 225.408,635.908 218.348,643.075C209.098,652.466 218.899,666.446 229.332,681.822C235.958,691.587 237.696,690.786 248.902,687.726C248.958,699.412 247.037,704.835 257.174,715.957Z" style="fill:white;"/>
    </g>
</svg>
