<?xml version="1.0" encoding="UTF-8" standalone="no"?>
<!DOCTYPE svg PUBLIC "-//W3C//DTD SVG 1.1//EN" "http://www.w3.org/Graphics/SVG/1.1/DTD/svg11.dtd">
<svg width="100%" height="100%" viewBox="0 0 400 381" version="1.1" xmlns="http://www.w3.org/2000/svg" xmlns:xlink="http://www.w3.org/1999/xlink" xml:space="preserve" xmlns:serif="http://www.serif.com/" style="fill-rule:evenodd;clip-rule:evenodd;stroke-linejoin:round;stroke-miterlimit:2;">
    <g transform="matrix(1.10772,0,0,1.238676,-16.734297,-29.210969)">
        <path d="M78.65,261L78.645,261L78.664,260.992C93.929,255.615 97.99,243.208 100.585,231.885L124.681,94.632L296.311,95.183L296.311,95.134L329.543,95.134L333.303,108.498L307.538,108.498L313.288,131.069L339.653,131.069L343.413,144.433L316.693,144.433L323.238,170.127L350.642,170.127L354.402,183.491L326.643,183.491L333.304,209.637L361.758,209.637L365.518,223.001L336.708,223.001L342.984,247.636L372.449,247.636L376.209,261L123.986,261L123.984,261L78.651,261L78.65,261ZM263.972,159.151C263.424,158.578 262.249,158.896 262.249,159.597L262.405,173.348L246.424,177.932C245.484,178.186 245.484,179.205 246.424,179.46L262.562,183.598L262.954,197.349C263.032,198.113 264.207,198.431 264.756,197.795L274.47,186.526L290.686,190.473C291.626,190.664 292.331,189.837 291.782,189.2L281.755,178.186L291.391,166.854C291.939,166.218 291.156,165.39 290.294,165.645L274.235,170.037L263.972,159.151ZM207.177,220.014C178.27,220.014 154.768,200.914 154.768,177.422C154.768,153.93 178.27,134.831 207.177,134.831C217.909,134.831 227.858,137.505 236.162,142.089C237.415,142.789 238.904,141.452 237.807,140.561C225.43,130.12 207.96,123.754 188.532,124.263C155.16,125.218 127.585,146.927 125.47,173.985C123.041,204.989 153.202,230.709 190.804,230.709C209.292,230.709 225.978,224.406 237.885,214.347C238.904,213.456 237.494,212.119 236.24,212.82C227.936,217.34 217.988,220.014 207.177,220.014ZM53.866,260.979C32.352,260.314 15.107,244.011 15.107,224.027C15.107,219.214 17.362,211.409 17.099,211.925L46.569,89.617C50.029,75.254 64.23,65 80.659,65L80.661,65C91.218,65 101.234,69.178 108.018,76.411C112.885,81.601 115.731,87.981 116.272,94.605L92.238,233.15C89.393,249.543 73.342,261.477 54.799,260.984C54.237,260.982 53.908,260.98 53.866,260.979ZM55.928,197.3C38.608,197.3 24.547,209.875 24.547,225.364C24.547,240.852 38.608,253.427 55.928,253.427C73.248,253.427 87.31,240.852 87.31,225.364C87.31,209.875 73.248,197.3 55.928,197.3ZM55.731,206.035C67.689,206.035 77.397,214.717 77.397,225.411C77.397,236.105 67.689,244.786 55.731,244.786C43.773,244.786 34.065,236.105 34.065,225.411C34.065,214.717 43.773,206.035 55.731,206.035Z" style="fill:white;"/>
    </g>
</svg>
