<?xml version="1.0" encoding="UTF-8" standalone="no"?>
<!-- Created with Inkscape (http://www.inkscape.org/) -->

<svg
   width="196.81494mm"
   height="137.79988mm"
   viewBox="0 0 196.81494 137.79988"
   version="1.1"
   id="svg1"
   xml:space="preserve"
   xmlns="http://www.w3.org/2000/svg"
   xmlns:svg="http://www.w3.org/2000/svg"><defs
     id="defs1" /><path
     style="fill:#000000"
     d="m 97.940477,136.73886 c -1.28076,-0.6679 -2.685842,-1.39572 -3.122404,-1.6174 -0.436563,-0.22167 -1.329531,-0.7626 -1.984375,-1.20208 -0.654844,-0.43947 -1.250156,-0.8671 -1.322917,-0.95029 -0.07276,-0.0832 -0.608541,-0.50583 -1.190625,-0.93919 -0.582083,-0.43336 -1.534583,-1.26644 -2.116666,-1.8513 -0.582084,-0.58486 -1.429014,-1.53931 -1.882068,-2.12099 -0.453054,-0.58168 -1.2549,-1.84618 -1.78188,-2.80999 -0.52698,-0.96381 -1.48524,-3.34614 -2.129466,-5.29407 -0.644226,-1.94793 -1.381994,-4.07639 -1.639485,-4.72991 -0.257491,-0.65352 -0.537099,-1.24775 -0.621352,-1.32051 -0.08425,-0.0728 -0.488831,-0.80748 -0.899064,-1.63271 -0.420841,-0.84656 -1.57267,-2.34783 -2.643157,-3.44501 -1.043503,-1.06953 -2.653356,-2.6231 -3.577451,-3.45238 -0.924096,-0.82928 -2.105097,-1.83887 -2.624448,-2.24353 -0.519351,-0.40466 -1.132492,-0.956 -1.362535,-1.2252 -0.230043,-0.2692 -0.902111,-0.86451 -1.493483,-1.32291 -0.591372,-0.45841 -1.662935,-1.338348 -2.38125,-1.955419 C 64.449536,98.0089 63.422692,97.175463 62.885976,96.773888 62.34926,96.372313 61.00622,95.345899 59.901443,94.492967 58.155801,93.145262 57.93711,92.886033 58.231457,92.513415 c 0.186285,-0.235821 0.579315,-0.669062 0.8734,-0.962756 0.294084,-0.293695 1.187053,-1.093969 1.984375,-1.778387 0.797321,-0.684418 2.16405,-1.896504 3.037175,-2.693525 1.064014,-0.971271 1.500252,-1.537458 1.322917,-1.716992 -0.145521,-0.147326 -0.740834,-0.386994 -1.322917,-0.532596 -0.582083,-0.145602 -1.504818,-0.390555 -2.050521,-0.54434 -0.545703,-0.153785 -1.37914,-0.390712 -1.852083,-0.526505 C 59.75086,83.622522 57.57797,83.041499 55.395157,82.467153 53.212345,81.892808 50.771564,81.234949 49.971199,81.005246 49.170834,80.775542 47.206303,80.222979 45.605574,79.777328 44.004845,79.331676 42.218908,78.858265 41.636824,78.725303 41.054741,78.592341 39.685522,78.226889 38.594116,77.913188 37.50271,77.599487 36.252554,77.245272 35.815991,77.126043 35.379429,77.006814 34.129272,76.65695 33.037866,76.348566 31.94646,76.040183 30.279585,75.600898 29.3337,75.372377 c -0.945886,-0.22852 -2.107849,-0.476367 -2.58214,-0.550771 -0.474292,-0.0744 -0.927803,-0.241187 -1.007803,-0.37063 -0.08,-0.129442 -0.429057,-0.23535 -0.775682,-0.23535 -0.346626,0 -0.703813,-0.119062 -0.79375,-0.264583 -0.08994,-0.145521 -0.506656,-0.264583 -0.926042,-0.264583 -0.419386,0 -0.827975,-0.105908 -0.907974,-0.23535 -0.08,-0.129443 -0.533511,-0.296958 -1.007803,-0.372257 -0.474291,-0.0753 -1.338598,-0.274704 -1.920681,-0.443122 -0.582083,-0.168418 -1.594115,-0.41418 -2.248958,-0.546138 -0.654844,-0.131957 -1.666875,-0.375998 -2.248959,-0.542311 -0.582083,-0.166314 -1.296458,-0.394309 -1.5875,-0.506656 -0.291041,-0.112347 -1.035182,-0.336901 -1.653645,-0.499009 -0.618464,-0.162107 -1.630495,-0.426202 -2.2489591,-0.586878 -0.6184635,-0.160675 -1.397972,-0.3988 -1.732241,-0.529166 -0.3342691,-0.130367 -0.8927892,-0.23703 -1.2411559,-0.23703 -0.3483667,0 -0.6984879,-0.105324 -0.7780471,-0.234054 C 5.5928007,68.82576 5.0202271,68.643927 4.3999742,68.550417 3.7797213,68.456907 2.5578666,68.159549 1.6847416,67.889622 L 0.09724171,67.398845 0.01149061,66.110881 c -0.0471631,-0.70838 0.0552028,-2.002338 0.22747976,-2.875463 0.17227697,-0.873125 0.54810135,-2.301875 0.83516523,-3.175 C 1.3611995,59.187293 1.7648493,58.097736 1.971135,57.639181 2.1774207,57.180626 2.3462,56.678835 2.3462,56.52409 c 0,-0.154745 0.2976562,-0.82136 0.6614583,-1.481368 0.3638021,-0.660007 0.9444338,-1.706028 1.2902926,-2.324492 0.3458589,-0.618464 1.0517428,-1.865035 1.5686309,-2.77016 0.516888,-0.905124 1.3352406,-2.15528 1.8185614,-2.778125 0.4833207,-0.622844 0.950755,-1.191976 1.0387429,-1.264736 0.087988,-0.07276 0.3261129,-0.442317 0.5291667,-0.821238 0.2030537,-0.37892 0.9645012,-1.382591 1.6921052,-2.230379 0.727605,-0.847788 1.857728,-2.145106 2.511385,-2.882929 0.653658,-0.737822 2.499127,-2.655436 4.101042,-4.261364 1.601915,-1.605927 3.700782,-3.629989 4.664148,-4.497916 0.963366,-0.867927 2.136107,-1.868801 2.606091,-2.224164 0.469983,-0.355363 1.229587,-0.997202 1.688008,-1.426309 0.458421,-0.429106 1.300391,-1.075469 1.871044,-1.436362 0.570653,-0.360893 1.285028,-0.889421 1.5875,-1.174509 0.302472,-0.285087 1.824604,-1.4018 3.382516,-2.481585 1.557911,-1.079785 2.946974,-1.963246 3.086805,-1.963246 0.139831,0 0.293926,-0.107719 0.342433,-0.239377 0.04851,-0.131657 1.100226,-0.863127 2.337153,-1.625488 1.236927,-0.76236 2.923836,-1.785735 3.748686,-2.274164 0.824851,-0.48843 1.618601,-0.888054 1.763889,-0.888054 0.145288,0 0.303848,-0.0893 0.352355,-0.198437 0.04851,-0.109141 0.683507,-0.493181 1.411111,-0.853422 0.727604,-0.360241 1.382448,-0.719035 1.455208,-0.797319 0.07276,-0.07828 0.668073,-0.397605 1.322917,-0.709601 0.654844,-0.311995 2.38125,-1.123532 3.836458,-1.803415 1.455209,-0.679882 3.122084,-1.4505929 3.704167,-1.7126906 0.582083,-0.2620977 2.070364,-0.8610008 3.307291,-1.3308957 1.236927,-0.4698949 3.201459,-1.2045064 4.365625,-1.63247 C 65.555157,6.0119111 67.281563,5.4383472 68.227449,5.1652884 69.173334,4.8922295 71.018803,4.3612194 72.32849,3.9852658 73.638178,3.6093122 75.126459,3.188688 75.635782,3.0505452 76.145105,2.9124024 77.33573,2.6083397 78.281615,2.3748503 79.2275,2.1413609 81.192032,1.7697704 82.64724,1.5490936 84.102448,1.3284168 85.947917,1.0463475 86.748281,0.92227303 87.548646,0.79819844 89.751302,0.53992925 91.643073,0.34834145 93.534844,0.15675365 97.821094,0 101.16808,0 c 3.34697,0 7.51416,0.15798023 9.26041,0.35106719 1.74625,0.19308695 3.82985,0.44840771 4.63021,0.56737944 0.80036,0.11897177 2.22911,0.34949257 3.175,0.51226847 0.94589,0.1627758 2.73182,0.5420584 3.96875,0.8428502 1.23693,0.3007917 3.43958,0.9068121 4.89479,1.346712 1.45521,0.4398998 2.88396,0.8980407 3.175,1.0180908 0.29104,0.12005 1.36261,0.4824956 2.38125,0.8054346 1.01865,0.322939 2.4474,0.8535317 3.175,1.1790949 0.72761,0.3255633 2.21589,0.9697047 3.30729,1.4314253 1.09141,0.4617207 2.99641,1.3377796 4.23334,1.9467971 1.23692,0.609018 2.54661,1.300961 2.91041,1.537651 0.3638,0.236691 0.95912,0.521809 1.32292,0.633597 0.3638,0.111788 1.15916,0.544128 1.76746,0.960754 0.60831,0.416627 1.17014,0.757503 1.24852,0.757503 0.0784,0 1.00943,0.549657 2.069,1.22146 1.05956,0.671803 2.93851,1.889853 4.17544,2.706778 1.23692,0.816925 3.37941,2.321096 4.76108,3.342603 1.38166,1.021506 2.67189,2.007914 2.86717,2.192017 0.19528,0.184103 0.79042,0.660353 1.32254,1.058333 0.53211,0.397981 1.22119,0.961726 1.53128,1.252768 0.31009,0.291041 0.8897,0.764154 1.28802,1.051361 0.39832,0.287207 1.55578,1.299238 2.57215,2.248958 1.01636,0.94972 2.6521,2.50067 3.63497,3.446556 0.98287,0.945885 2.84672,2.85609 4.14189,4.244899 1.29517,1.388809 2.97284,3.234278 3.72816,4.101042 0.75532,0.866764 1.64829,1.954873 1.98437,2.41802 0.33609,0.463147 1.14541,1.53471 1.79848,2.38125 0.65308,0.84654 1.95181,2.670258 2.88608,4.052706 0.93426,1.382448 1.99173,3.049323 2.34993,3.704167 0.3582,0.654843 0.97337,1.785937 1.36705,2.513541 0.39368,0.727604 0.84182,1.561042 0.99585,1.852084 0.15404,0.291041 0.41006,0.826823 0.56894,1.190625 0.15887,0.363802 0.56939,1.554427 0.91226,2.645833 0.34286,1.091406 0.76255,2.551631 0.93263,3.244943 0.17007,0.693312 0.30923,1.542071 0.30923,1.88613 0,0.43435 -0.2224,0.715956 -0.72761,0.921292 -0.40018,0.162652 -1.62057,0.527941 -2.71197,0.811754 -1.09141,0.283812 -2.81782,0.770309 -3.83646,1.081105 -1.01865,0.310795 -2.20927,0.660604 -2.64584,0.777352 -0.43656,0.116749 -1.03187,0.29632 -1.32291,0.399047 -0.29104,0.102728 -0.76729,0.286075 -1.05834,0.407439 -0.29104,0.121364 -0.82682,0.277031 -1.19062,0.345926 -0.3638,0.06889 -1.67349,0.382382 -2.91042,0.696637 -1.23693,0.314254 -2.48708,0.670002 -2.77812,0.790549 -0.29104,0.120547 -1.06495,0.365382 -1.71979,0.544076 -0.65485,0.178695 -1.42875,0.420453 -1.7198,0.537241 -0.29104,0.116788 -0.82682,0.289848 -1.19062,0.384579 -0.3638,0.09473 -1.01865,0.272603 -1.45521,0.395271 -0.43656,0.122667 -1.74625,0.477457 -2.91042,0.788421 -1.16416,0.310964 -3.30729,0.92591 -4.7625,1.366548 -1.4552,0.440637 -3.41974,1.0285 -4.36562,1.306361 -0.94589,0.277862 -3.20807,0.933062 -5.02708,1.456 -1.81901,0.522938 -4.97417,1.423398 -7.01146,2.001022 -2.03729,0.577623 -4.18042,1.177177 -4.7625,1.33234 -0.58209,0.155164 -1.29646,0.371986 -1.5875,0.481827 -0.29104,0.10984 -1.30307,0.442605 -2.24896,0.739477 -0.94589,0.296872 -2.10538,0.619311 -2.57665,0.71653 -0.47128,0.09722 -0.92994,0.295005 -1.01926,0.439523 -0.0893,0.144519 1.06807,1.41528 2.57196,2.823915 1.5039,1.408635 3.1962,3.016368 3.76067,3.572741 l 1.02631,1.011587 -3.27058,1.653096 c -1.79882,0.909202 -3.86589,1.987468 -4.59349,2.396146 -0.72761,0.408678 -1.50151,0.888325 -1.71979,1.065883 -0.21828,0.177559 -1.2073,0.881592 -2.19781,1.56452 -0.99051,0.682926 -2.16604,1.564016 -2.6123,1.957976 -0.44626,0.39396 -1.42178,1.31407 -2.16783,2.04469 -0.74604,0.73061 -1.58976,1.62358 -1.87494,1.98437 -0.28518,0.36079 -0.95423,1.37236 -1.48678,2.24794 -0.53256,0.87558 -1.05851,2.00276 -1.16879,2.50486 -0.11028,0.50209 -0.29054,1.0954 -0.40058,1.31845 -0.11004,0.22306 -0.32521,0.70322 -0.47816,1.06702 -0.15294,0.3638 -0.53184,1.43537 -0.84198,2.38125 -0.31014,0.94589 -0.68904,2.01745 -0.84198,2.38125 -0.15295,0.3638 -0.38326,0.8682 -0.51181,1.12089 -0.12854,0.25269 -0.23447,0.60988 -0.23539,0.79375 -9.2e-4,0.18388 -0.51942,1.34635 -1.15221,2.58328 -0.6328,1.23693 -1.58947,2.89332 -2.12594,3.68088 -0.53647,0.78755 -1.58643,2.15677 -2.33326,3.0427 -0.74682,0.88594 -1.67876,1.90845 -2.07097,2.27225 -0.39221,0.3638 -1.28164,1.13456 -1.97652,1.71279 -0.69487,0.57823 -1.65163,1.35213 -2.12613,1.71979 -0.4745,0.36766 -1.20153,0.86573 -1.61561,1.10683 -0.41409,0.2411 -1.40773,0.84323 -2.2081,1.33805 -0.80036,0.49483 -1.65747,0.9761 -1.90467,1.06949 -0.2773,0.10475 -1.341483,-0.29537 -2.778133,-1.04455 z m 7.461683,-35.26175 5.15977,-5.14997 -5.2261,-5.231244 c -2.87435,-2.877183 -5.344033,-5.232899 -5.488193,-5.234923 -0.14416,-0.002 -2.555171,2.287128 -5.357812,5.087005 -2.80264,2.799877 -5.09571,5.209776 -5.09571,5.355331 0,0.145555 2.291953,2.560082 5.093229,5.365621 2.801276,2.80553 5.242133,5.06883 5.424133,5.02956 0.182003,-0.0393 2.652803,-2.38889 5.490683,-5.22138 z"
     id="path1" /></svg>
