<?xml version="1.0" encoding="UTF-8" standalone="no"?>
<!DOCTYPE svg PUBLIC "-//W3C//DTD SVG 1.1//EN" "http://www.w3.org/Graphics/SVG/1.1/DTD/svg11.dtd">
<svg width="100%" height="100%" viewBox="0 0 150 150" version="1.1" xmlns="http://www.w3.org/2000/svg" xmlns:xlink="http://www.w3.org/1999/xlink" xml:space="preserve" xmlns:serif="http://www.serif.com/" style="fill-rule:evenodd;clip-rule:evenodd;stroke-linejoin:round;stroke-miterlimit:2;">
    <g transform="matrix(1,0,0,1,-4.5,-259.5)">
        <g transform="matrix(1.094891,0,0,1.094891,-9.733577,-38.310219)">
            <path d="M81.5,272C119.306,272 150,302.694 150,340.5C150,378.306 119.306,409 81.5,409C43.694,409 13,378.306 13,340.5C13,302.694 43.694,272 81.5,272ZM81.96,314.295C67.751,314.295 56.215,325.831 56.215,340.04C56.215,354.249 67.751,365.785 81.96,365.785C96.169,365.785 107.705,354.249 107.705,340.04C107.705,325.831 96.169,314.295 81.96,314.295ZM124.812,375.421C105.494,395.566 73.696,396.5 54.861,378.391C43.981,367.809 39.601,355.524 39.317,341.683C38.236,321.088 59.493,306.46 59.493,306.46C59.493,306.46 35.101,311.894 31.08,343.747C30.435,374.469 55.043,399.326 85.238,399.326C101.87,399.326 116.155,391.172 126.193,379.444C139.734,362.513 139.652,347.365 139.652,347.365C139.652,347.365 135.078,364.715 124.812,375.421ZM37.358,305.361C56.676,285.216 88.473,284.282 107.309,302.391C118.189,312.973 122.569,325.259 122.853,339.099C123.934,359.694 102.677,374.322 102.677,374.322C102.677,374.322 127.069,368.888 131.09,337.035C131.735,306.313 107.126,281.456 76.932,281.456C60.3,281.456 46.014,289.61 35.977,301.338C22.436,318.269 22.518,333.418 22.518,333.418C22.518,333.418 27.092,316.067 37.358,305.361Z" style="fill:rgb(175,133,222);"/>
        </g>
    </g>
</svg>
