<?xml version="1.0" encoding="UTF-8" standalone="no"?>
<!DOCTYPE svg PUBLIC "-//W3C//DTD SVG 1.1//EN" "http://www.w3.org/Graphics/SVG/1.1/DTD/svg11.dtd">
<svg width="100%" height="100%" viewBox="0 0 800 800" version="1.1" xmlns="http://www.w3.org/2000/svg" xmlns:xlink="http://www.w3.org/1999/xlink" xml:space="preserve" xmlns:serif="http://www.serif.com/" style="fill-rule:evenodd;clip-rule:evenodd;stroke-linejoin:round;stroke-miterlimit:2;">
    <g transform="matrix(0.820017,0.385328,-0.496548,1.056704,680.312974,-104.85021)">
        <path d="M-173.139,499.44C-173.122,493.065 -173.158,486.612 -173.254,480.065C-183.664,473.681 -194.748,466.902 -206.947,459.351C-297.989,402.994 -501.285,305.585 -490.125,296.447C-479.37,287.641 -479.227,215.731 -179.252,382.288C-184.041,337.645 -204.216,229.653 -205.843,226.6C-159.789,269.719 -113.945,306.234 -75.129,336.003C-80.791,130.716 -21.907,118.148 28.045,135.065C46.452,141.3 21.138,287.332 22.917,377.695C23.107,387.355 23.176,396.216 23.195,404.545C30.152,408.93 37.051,413.187 43.905,417.337C56.404,120.998 87.513,91.91 183.5,62C159.74,146.817 135.263,304.154 135.263,449.157C135.263,455.824 135.315,462.417 135.416,468.937C204.208,505.686 274.035,540.411 358.158,594.342C287.057,605.231 207.498,583.565 139.531,552.367C147.566,648.062 165.733,725.578 183.5,789C165.997,805.69 67.834,640.644 46.783,499.928C38.767,494.417 31.296,488.963 24.449,483.655C26.294,512.607 30.702,546.999 41.106,600.112C48.235,617.298 50.666,630.085 48.406,635.801L48.579,636.616C48.298,636.88 47.988,637.079 47.651,637.214C46.786,638.421 45.564,639.071 43.985,639.107C-18.451,587.116 -58.329,556.224 -91.973,532.572C-91.544,540.107 -91.288,547.702 -91.222,555.344C33.793,657.098 134.658,815.202 107.551,814.851C55.921,764.785 -9.203,705.744 -98.061,641.177C-107.286,691.06 -128.685,737.61 -180.49,790.761C-183.728,710.232 -179.284,648.471 -176.026,587.344C-184.239,581.951 -192.623,576.529 -201.182,571.079C-345.633,479.099 -517.501,393.603 -616.681,353.69C-527.234,316.418 -479.001,316.82 -173.139,499.44ZM-42.648,480.564C-51.659,456.725 -59.562,432.219 -65.293,408.657C-98.733,377.813 -126.867,346.591 -154.103,307.051C-138.115,339.147 -121.84,379.05 -109.851,423.8C-84.39,441.534 -61.99,460.922 -42.648,480.564Z" style="fill:white;"/>
    </g>
</svg>
