<?xml version="1.0" encoding="UTF-8" standalone="no"?>
<!DOCTYPE svg PUBLIC "-//W3C//DTD SVG 1.1//EN" "http://www.w3.org/Graphics/SVG/1.1/DTD/svg11.dtd">
<svg width="100%" height="100%" viewBox="0 0 512 490" version="1.1" xmlns="http://www.w3.org/2000/svg" xmlns:xlink="http://www.w3.org/1999/xlink" xml:space="preserve" xmlns:serif="http://www.serif.com/" style="fill-rule:evenodd;clip-rule:evenodd;stroke-linejoin:round;stroke-miterlimit:2;">
    <g transform="matrix(1,0,0,1,-0,-11.306992)">
        <g transform="matrix(0,-0.889527,4.966023,0,-558.427719,279.382213)">
            <path d="M-44.282,160.17C-43.639,132.735 -37.274,125.587 -110.149,112.45C-5.704,119.636 -4.604,131.52 -6.704,151.87L-6.704,160.17L62.087,160.17L62.087,152.283C59.987,131.933 61.087,120.049 165.532,112.863C93.024,125.934 98.96,133.076 99.654,160.17L143.023,160.17L143.023,152.077C140.923,131.726 142.023,119.843 246.467,112.656C173.776,125.76 179.926,132.906 180.595,160.17L301.368,160.17L301.368,167.831L180.595,167.831C179.925,195.095 173.776,202.24 246.467,215.344C142.023,208.157 140.923,196.274 143.023,175.923L143.023,167.831L99.664,167.831C99.022,195.265 92.658,202.413 165.532,215.55C61.087,208.364 59.987,196.48 62.087,176.13L62.087,167.831L-6.704,167.831L-6.704,175.717C-4.604,196.067 -5.704,207.951 -110.149,215.137C-37.642,202.066 -43.577,194.924 -44.271,167.831L-86.484,167.831L-86.484,176.13C-84.384,196.48 -85.484,208.364 -189.929,215.55C-117.054,202.413 -123.418,195.265 -124.061,167.831L-248.796,167.831L-248.796,160.17L-124.051,160.17C-123.356,133.076 -117.421,125.934 -189.929,112.863C-85.484,120.049 -84.384,131.933 -86.484,152.283L-86.484,160.17L-44.282,160.17Z" style="fill:white;"/>
        </g>
    </g>
</svg>
